<svg width="1082" height="318" viewBox="0 0 1082 318" fill="none" xmlns="http://www.w3.org/2000/svg">
<path d="M671.5 143V96C671.5 84.9543 680.454 76 691.5 76H773" stroke="#BFC1D4"/>
<path d="M671.5 143V96C671.5 84.9543 680.454 76 691.5 76H773" stroke="url(#paint0_linear_9332_109018)"/>
<path d="M410.5 143V96C410.5 84.9543 401.546 76 390.5 76H309" stroke="#BFC1D4"/>
<path d="M410.5 143V96C410.5 84.9543 401.546 76 390.5 76H309" stroke="url(#paint1_linear_9332_109018)"/>
<g filter="url(#filter0_ddiii_9332_109018)">
<path d="M774 183.5C774 179.082 777.582 175.5 782 175.5H1034C1038.42 175.5 1042 179.082 1042 183.5V236.5C1042 240.918 1038.42 244.5 1034 244.5H782C777.582 244.5 774 240.918 774 236.5V183.5Z" fill="white" shape-rendering="crispEdges"/>
<path d="M774 183.5C774 179.082 777.582 175.5 782 175.5H1034C1038.42 175.5 1042 179.082 1042 183.5V236.5C1042 240.918 1038.42 244.5 1034 244.5H782C777.582 244.5 774 240.918 774 236.5V183.5Z" fill="url(#paint2_radial_9332_109018)" shape-rendering="crispEdges"/>
<path d="M774 183.5C774 179.082 777.582 175.5 782 175.5H1034C1038.42 175.5 1042 179.082 1042 183.5V236.5C1042 240.918 1038.42 244.5 1034 244.5H782C777.582 244.5 774 240.918 774 236.5V183.5Z" fill="url(#paint3_radial_9332_109018)" shape-rendering="crispEdges"/>
<path d="M803.528 198.244V199.556C802.568 200.569 801.56 201.433 800.504 202.148C799.459 202.852 798.147 203.497 796.568 204.084C795 204.671 793.021 205.22 790.632 205.732L789.96 204.324C792.157 203.908 793.987 203.46 795.448 202.98C796.92 202.489 798.12 201.972 799.048 201.428C799.976 200.884 800.808 200.26 801.544 199.556H796.36C796.211 199.663 795.891 199.881 795.4 200.212C795.976 200.521 796.664 200.911 797.464 201.38L796.44 202.468C795.373 201.775 794.595 201.273 794.104 200.964C793.315 201.391 792.36 201.839 791.24 202.308L790.504 201.06C791.912 200.537 793.219 199.919 794.424 199.204C795.64 198.489 796.632 197.764 797.4 197.028C795.437 197.86 793.181 198.559 790.632 199.124L790.04 197.812C792.408 197.353 794.472 196.777 796.232 196.084C797.992 195.391 799.512 194.575 800.792 193.636H794.936L794.504 193.94L796.584 195.06L795.592 196.084C795.304 195.892 794.925 195.668 794.456 195.412C793.997 195.145 793.581 194.921 793.208 194.74C792.579 195.103 791.944 195.433 791.304 195.732L790.472 194.532C791.667 194.009 792.781 193.401 793.816 192.708C794.851 192.015 795.683 191.332 796.312 190.66L797.784 191.14C797.475 191.503 797.096 191.887 796.648 192.292H802.984V193.636C801.523 194.863 799.827 195.919 797.896 196.804L798.952 197.236C798.579 197.641 798.248 197.977 797.96 198.244H803.528ZM806.28 197.108L805.928 195.716C806.419 195.065 806.883 194.329 807.32 193.508C807.768 192.687 808.221 191.78 808.68 190.788L809.944 191.332C808.931 193.38 808.163 194.793 807.64 195.572L809.24 195.396C809.443 195.033 809.704 194.532 810.024 193.892L811.256 194.532C810.787 195.417 810.259 196.335 809.672 197.284C809.096 198.223 808.568 199.017 808.088 199.668L810.648 199.268L810.664 200.692L806.568 201.348L806.248 199.844C806.984 199.001 807.709 197.988 808.424 196.804L806.28 197.108ZM820.184 203.124V204.468H813.272V205.62H811.864V197.284C811.544 197.796 811.293 198.18 811.112 198.436L810.264 197.06C811.469 195.439 812.355 193.369 812.92 190.852L814.328 191.108C814.125 191.908 813.901 192.665 813.656 193.38H816.152C815.907 192.548 815.693 191.876 815.512 191.364L816.824 191.028L817.032 191.668C817.363 192.639 817.555 193.209 817.608 193.38H820.024V194.74H817.272V196.596H819.768V197.924H817.272V199.748H819.768V201.076H817.272V203.124H820.184ZM813.272 196.596H815.896V194.74H813.272V196.596ZM813.272 199.748H815.896V197.924H813.272V199.748ZM815.896 201.076H813.272V203.124H815.896V201.076ZM806.184 204.5L805.96 203.06L810.76 202.228L810.872 203.716L806.184 204.5ZM831.336 190.772C831.859 192.191 832.504 193.369 833.272 194.308C834.051 195.247 835.08 196.105 836.36 196.884L835.56 198.372C834.141 197.423 833 196.415 832.136 195.348C831.272 194.281 830.541 192.932 829.944 191.3L831.336 190.772ZM828.264 191.604C827.784 192.703 827.229 193.705 826.6 194.612C825.971 195.508 825.235 196.34 824.392 197.108H833.736C833.693 197.961 833.624 199.007 833.528 200.244C833.443 201.471 833.368 202.399 833.304 203.028C833.24 203.593 833.112 204.036 832.92 204.356C832.728 204.665 832.44 204.884 832.056 205.012C831.672 205.151 831.155 205.22 830.504 205.22H828.344L828.056 203.764H830.056C830.504 203.764 830.84 203.727 831.064 203.652C831.299 203.577 831.464 203.449 831.56 203.268C831.667 203.076 831.741 202.783 831.784 202.388L831.912 200.788C832.008 199.615 832.067 198.873 832.088 198.564H827.864C827.832 198.788 827.816 199.049 827.816 199.348C827.773 200.34 827.613 201.188 827.336 201.892C827.069 202.585 826.621 203.241 825.992 203.86C825.373 204.468 824.488 205.108 823.336 205.78L822.264 204.388C823.277 203.887 824.056 203.401 824.6 202.932C825.155 202.463 825.549 201.956 825.784 201.412C826.029 200.857 826.2 200.164 826.296 199.332L826.36 198.564H824.216V197.268C823.843 197.609 823.379 197.988 822.824 198.404L821.992 196.996C823.037 196.271 823.976 195.396 824.808 194.372C825.651 193.337 826.333 192.223 826.856 191.028L828.264 191.604ZM843.16 199.908C842.605 199.353 842.115 198.889 841.688 198.516V205.588H840.248V198.58C839.725 199.828 839.165 200.948 838.568 201.94L838.104 200.004C838.509 199.396 838.888 198.697 839.24 197.908C839.592 197.108 839.901 196.26 840.168 195.364H838.312V193.908H840.248V191.076H841.688V193.908H843.56V195.364H841.688V196.692C842.723 197.545 843.491 198.223 843.992 198.724L843.16 199.908ZM852.392 196.5V198.004H850.072V205.508H848.568V198.004H845.832C845.821 199.327 845.757 200.404 845.64 201.236C845.523 202.057 845.315 202.809 845.016 203.492C844.717 204.175 844.275 204.921 843.688 205.732L842.456 204.628C843 203.924 843.4 203.279 843.656 202.692C843.923 202.095 844.104 201.401 844.2 200.612C844.296 199.812 844.344 198.713 844.344 197.316V192.388C846.691 192.228 849.011 191.892 851.304 191.38L851.72 192.868C850.835 193.071 849.869 193.252 848.824 193.412C847.779 193.572 846.781 193.695 845.832 193.78V196.5H852.392Z" fill="#0A0B10"/>
<path d="M795.342 219.288V220.828H794.362V218.308H797.638C797.563 218.121 797.517 218.005 797.498 217.958C797.255 217.323 797.111 216.959 797.064 216.866L798.128 216.586C798.408 217.221 798.646 217.795 798.842 218.308H801.782V220.828H800.774V219.288H795.342ZM793.732 223.194L792.528 223.67V227.856C792.528 228.239 792.477 228.528 792.374 228.724C792.281 228.92 792.122 229.055 791.898 229.13C791.683 229.205 791.38 229.242 790.988 229.242H790.106L789.896 228.206H790.68C791.025 228.206 791.254 228.164 791.366 228.08C791.478 227.987 791.534 227.791 791.534 227.492V224.062C790.871 224.323 790.363 224.529 790.008 224.678L789.742 223.67L791.534 222.984V220.296H790.05V219.274H791.534V216.824H792.528V219.274H793.886V220.296H792.528V222.578C792.901 222.429 793.247 222.284 793.564 222.144L793.732 223.194ZM802.118 223.166H800.634C800.475 223.903 800.27 224.552 800.018 225.112C799.766 225.663 799.444 226.162 799.052 226.61C800.032 227.189 801.017 227.795 802.006 228.43L801.404 229.41C800.415 228.747 799.36 228.071 798.24 227.38C797.736 227.791 797.125 228.169 796.406 228.514C795.687 228.859 794.819 229.2 793.802 229.536L793.34 228.486C795.057 227.982 796.364 227.413 797.26 226.778C796.317 226.218 795.454 225.733 794.67 225.322C795.015 224.613 795.337 223.894 795.636 223.166H794.068V222.172H796.028C796.299 221.453 796.523 220.739 796.7 220.03L797.764 220.282C797.605 220.823 797.391 221.453 797.12 222.172H802.118V223.166ZM798.086 226.064C798.45 225.681 798.749 225.257 798.982 224.79C799.225 224.314 799.421 223.773 799.57 223.166H796.728C796.467 223.773 796.21 224.356 795.958 224.916C796.593 225.233 797.302 225.616 798.086 226.064ZM807.97 224.342C807.662 224.006 807.261 223.609 806.766 223.152V229.55H805.73V222.844C805.198 224.225 804.647 225.345 804.078 226.204L803.77 224.846C804.106 224.333 804.451 223.675 804.806 222.872C805.17 222.069 805.473 221.276 805.716 220.492H804.05V219.484H805.73V216.824H806.766V219.484H808.32V220.492H806.766V222.004C806.85 222.088 806.948 222.172 807.06 222.256C807.172 222.359 807.391 222.555 807.718 222.844C808.054 223.133 808.32 223.376 808.516 223.572L807.97 224.342ZM809.034 217.692H815.684V218.756H809.034V217.692ZM816.258 222.242H812.842V227.94C812.842 228.472 812.73 228.836 812.506 229.032C812.291 229.237 811.899 229.34 811.33 229.34H809.986L809.748 228.276H810.966C811.209 228.276 811.386 228.257 811.498 228.22C811.619 228.173 811.699 228.099 811.736 227.996C811.783 227.884 811.806 227.711 811.806 227.478V222.242H808.404V221.22H816.258V222.242ZM810.658 223.74C810.425 224.477 810.131 225.257 809.776 226.078C809.431 226.89 809.071 227.609 808.698 228.234L807.746 227.716C808.129 227.091 808.493 226.386 808.838 225.602C809.193 224.818 809.477 224.076 809.692 223.376L810.658 223.74ZM814.536 223.376C814.984 224.356 815.595 225.84 816.37 227.828L815.376 228.22C814.62 226.129 814.041 224.645 813.64 223.768L814.536 223.376ZM819.31 216.88L819.66 217.328C820.528 218.401 821.074 219.087 821.298 219.386L820.514 220.114C820.234 219.731 819.912 219.307 819.548 218.84C819.193 218.373 818.862 217.949 818.554 217.566L819.31 216.88ZM822.74 223.964V217.664H829.264V223.964H822.74ZM828.242 218.686H823.776V222.956H828.242V218.686ZM818.036 221.248H820.458V226.848L821.97 225.434L822.32 226.554L819.702 228.878L819.044 228.038C819.203 227.879 819.31 227.744 819.366 227.632C819.422 227.52 819.45 227.375 819.45 227.198V222.326H818.036V221.248ZM827.612 224.79C828.013 225.313 828.499 225.98 829.068 226.792C829.647 227.604 830.099 228.267 830.426 228.78L829.502 229.494C828.989 228.617 828.079 227.268 826.772 225.448L827.612 224.79ZM821.256 228.738C821.825 228.187 822.381 227.562 822.922 226.862C823.473 226.162 823.925 225.485 824.28 224.832L825.19 225.448C824.835 226.083 824.378 226.773 823.818 227.52C823.258 228.257 822.703 228.929 822.152 229.536L821.256 228.738ZM835.046 217.86H836.264L832.96 228.5H831.742L835.046 217.86ZM844.348 216.698C844.973 217.669 845.78 218.56 846.77 219.372C847.768 220.175 848.865 220.847 850.06 221.388L849.542 222.424C848.73 222.032 847.983 221.598 847.302 221.122V222.018H840.4V221.206C839.634 221.757 838.902 222.223 838.202 222.606L837.726 221.542C838.883 220.935 839.97 220.198 840.988 219.33C842.014 218.462 842.817 217.585 843.396 216.698H844.348ZM847.134 221.01C845.808 220.077 844.721 219.013 843.872 217.818C843.116 218.891 842.047 219.955 840.666 221.01H847.134ZM840.512 229.326H839.42V223.74H848.268V229.34H847.204V228.584H840.512V229.326ZM847.204 227.604V224.748H840.512V227.604H847.204ZM863.29 227.52C863.29 227.968 863.234 228.309 863.122 228.542C863.01 228.785 862.823 228.953 862.562 229.046C862.31 229.139 861.95 229.186 861.484 229.186H859.874L859.678 228.192H861.134C861.432 228.192 861.656 228.169 861.806 228.122C861.955 228.075 862.058 227.987 862.114 227.856C862.17 227.716 862.198 227.511 862.198 227.24V218.392H853.56V229.298H852.482V217.398H863.29V227.52ZM854.442 220.03H861.358V220.982H854.442V220.03ZM855.254 222.48H860.504V226.904H855.254V222.48ZM856.234 223.404V225.98H859.524V223.404H856.234ZM868.848 217.86H870.066L866.762 228.5H865.544L868.848 217.86ZM882.294 218.938H873.166V220.562H872.13V217.986H877.212L876.75 216.684L877.968 216.502L878.458 217.986H883.344V220.576H882.294V218.938ZM878.85 223.096C880.147 223.497 881.78 223.777 883.75 223.936L883.54 224.958C881.225 224.706 879.265 224.263 877.66 223.628C875.924 224.337 873.959 224.851 871.766 225.168L871.5 224.16C873.273 223.964 874.934 223.614 876.484 223.11C875.737 222.727 875.056 222.298 874.44 221.822C873.861 222.289 873.24 222.713 872.578 223.096L872.018 222.284C872.699 221.929 873.366 221.472 874.02 220.912C874.673 220.343 875.168 219.82 875.504 219.344L876.54 219.624C876.288 219.951 876.124 220.151 876.05 220.226H881.93V221.08C881.08 221.845 880.054 222.517 878.85 223.096ZM875.14 221.192C875.886 221.78 876.726 222.275 877.66 222.676C878.836 222.181 879.774 221.659 880.474 221.108H875.224L875.14 221.192ZM874.482 229.466H873.46V225.266H881.93V229.466H880.894V228.738H874.482V229.466ZM880.894 227.87V226.162H874.482V227.87H880.894ZM897.008 218.49V223.81H888.146C888.108 224.706 888.029 225.467 887.908 226.092C887.786 226.717 887.604 227.296 887.362 227.828C887.128 228.351 886.806 228.92 886.396 229.536L885.402 228.92C885.878 228.257 886.228 227.651 886.452 227.1C886.685 226.54 886.844 225.896 886.928 225.168C887.021 224.44 887.068 223.46 887.068 222.228V218.49H891.716L890.932 216.838L892.038 216.502L892.948 218.49H897.008ZM888.174 222.774H895.902V219.498H888.174V222.004V222.774ZM902.65 217.86H903.868L900.564 228.5H899.346L902.65 217.86ZM907.149 217.356H915.773V221.878H907.149V217.356ZM908.227 220.884H914.723V218.35H908.227V220.884ZM906.925 229.382H905.945V223.502H910.663V229.382H909.697V228.556H906.925V229.382ZM912.091 229.382V223.502H916.977V229.382H916.011V228.556H913.085V229.382H912.091ZM909.697 227.59V224.496H906.925V227.59H909.697ZM913.085 224.496V227.59H916.011V224.496H913.085ZM928.359 216.614V219.204H931.229V225.14H930.249V225.112H928.359V229.424H927.351V225.112H925.503V225.154H924.509V219.204H927.351V216.614H928.359ZM922.241 222.536C922.755 223.003 923.403 223.651 924.187 224.482L923.557 225.308C923.259 224.935 922.82 224.459 922.241 223.88V229.424H921.261V223.894C920.813 224.995 920.263 226.027 919.609 226.988L919.147 225.952C919.549 225.383 919.936 224.725 920.309 223.978C920.692 223.222 921.009 222.466 921.261 221.71V221.668H919.399V220.632H921.261V218.742C920.841 218.817 920.267 218.905 919.539 219.008L919.441 218.028C920.123 217.935 920.883 217.809 921.723 217.65C922.573 217.482 923.273 217.323 923.823 217.174L923.977 218.154C923.576 218.285 922.997 218.42 922.241 218.56V220.632H924.019V221.668H922.241V222.536ZM925.503 220.212V224.062H927.351V220.212H925.503ZM928.359 220.212V224.062H930.249V220.212H928.359ZM940.469 227.702H945.775V228.738H933.749V227.702H939.349V224.412H934.967V223.362H939.349V220.492H936.017C935.616 221.369 935.145 222.186 934.603 222.942L933.665 222.368C934.72 220.959 935.509 219.237 936.031 217.202L937.095 217.454C936.899 218.163 936.689 218.821 936.465 219.428H939.349V216.684H940.469V219.428H945.257V220.492H940.469V223.362H944.781V224.412H940.469V227.702ZM958.053 218.854C957.409 218.154 956.849 217.599 956.373 217.188L957.059 216.488C957.619 217.001 958.193 217.561 958.781 218.168L958.053 218.854ZM960.013 225.686C959.892 226.377 959.771 226.988 959.649 227.52C959.5 228.173 959.295 228.626 959.033 228.878C958.772 229.13 958.455 229.256 958.081 229.256C957.755 229.256 957.447 229.135 957.157 228.892C956.877 228.659 956.555 228.262 956.191 227.702C956.051 227.478 955.925 227.24 955.813 226.988C955.179 227.707 954.413 228.43 953.517 229.158L952.775 228.318C953.821 227.497 954.689 226.675 955.379 225.854C954.922 224.491 954.572 222.536 954.329 219.988H949.723V222.074H953.223C953.223 222.345 953.2 223.007 953.153 224.062C953.107 225.117 953.069 225.784 953.041 226.064C953.004 226.503 952.925 226.848 952.803 227.1C952.682 227.352 952.481 227.539 952.201 227.66C951.931 227.772 951.548 227.828 951.053 227.828H950.087L949.877 226.764H950.801C951.165 226.764 951.427 226.741 951.585 226.694C951.744 226.647 951.851 226.559 951.907 226.428C951.973 226.297 952.019 226.083 952.047 225.784C952.066 225.569 952.085 225.154 952.103 224.538C952.131 223.913 952.15 223.432 952.159 223.096H949.723C949.705 224.543 949.602 225.723 949.415 226.638C949.238 227.553 948.911 228.486 948.435 229.438L947.399 228.962C947.754 228.309 948.025 227.697 948.211 227.128C948.398 226.559 948.524 225.924 948.589 225.224C948.664 224.524 948.701 223.623 948.701 222.522V218.938H954.231L954.049 216.6H955.085C955.095 216.749 955.137 217.323 955.211 218.322L955.253 218.938H959.691V219.988H955.337C955.515 221.948 955.785 223.567 956.149 224.846C956.523 224.295 956.854 223.707 957.143 223.082C957.433 222.457 957.713 221.752 957.983 220.968L958.921 221.36C958.585 222.293 958.231 223.143 957.857 223.908C957.484 224.664 957.05 225.383 956.555 226.064C956.714 226.493 956.929 226.918 957.199 227.338C957.386 227.618 957.549 227.814 957.689 227.926C957.839 228.038 957.979 228.094 958.109 228.094C958.259 228.094 958.389 228.024 958.501 227.884C958.613 227.735 958.716 227.45 958.809 227.03C958.931 226.377 959.024 225.826 959.089 225.378L960.013 225.686ZM964.409 216.726V219.316H965.949V220.31H964.409V222.802L965.837 222.312L965.879 222.844L965.921 223.32L964.409 223.824V227.702C964.409 228.113 964.363 228.425 964.269 228.64C964.176 228.855 964.013 229.004 963.779 229.088C963.555 229.181 963.224 229.228 962.785 229.228H961.903L961.707 228.22H962.477C962.86 228.22 963.112 228.169 963.233 228.066C963.364 227.954 963.429 227.735 963.429 227.408V224.146L962.197 224.538C961.983 224.613 961.81 224.669 961.679 224.706L961.483 223.726C961.95 223.595 962.599 223.395 963.429 223.124V220.31H961.805V219.316H963.429V216.726H964.409ZM971.311 226.554C971.657 226.89 972.035 227.203 972.445 227.492C972.856 227.781 973.341 228.089 973.901 228.416L973.355 229.34C972.235 228.696 971.325 228.015 970.625 227.296C969.916 227.987 969.071 228.64 968.091 229.256L967.503 228.416V229.494H966.495V217.384H973.033C973.033 217.655 973.024 218.023 973.005 218.49C972.987 218.957 972.973 219.339 972.963 219.638C972.935 220.011 972.865 220.296 972.753 220.492C972.651 220.679 972.478 220.809 972.235 220.884C972.002 220.959 971.657 220.996 971.199 220.996H969.015L968.847 220.044H970.793C971.232 220.044 971.526 220.002 971.675 219.918C971.834 219.825 971.927 219.643 971.955 219.372C971.993 218.887 972.011 218.555 972.011 218.378H967.503V221.976H973.201V222.956C972.856 224.263 972.226 225.462 971.311 226.554ZM967.503 228.332C968.474 227.763 969.295 227.165 969.967 226.54C969.239 225.588 968.661 224.398 968.231 222.97H967.503V228.332ZM970.653 225.812C971.353 225 971.857 224.053 972.165 222.97H969.225C969.589 224.081 970.065 225.028 970.653 225.812ZM984.429 226.232C984.849 226.559 985.344 226.848 985.913 227.1C986.492 227.352 987.187 227.59 987.999 227.814L987.523 228.836C986.394 228.472 985.461 228.075 984.723 227.646C983.995 227.217 983.384 226.713 982.889 226.134C982.404 225.555 981.961 224.832 981.559 223.964C981.121 224.421 980.612 224.883 980.033 225.35V228.122L983.029 227.128L983.183 228.122L978.857 229.55L978.493 228.752C978.661 228.659 978.792 228.547 978.885 228.416C978.988 228.276 979.039 228.15 979.039 228.038V226.092C978.143 226.717 977.135 227.287 976.015 227.8L975.553 226.792C976.589 226.353 977.518 225.873 978.339 225.35C979.161 224.818 979.94 224.207 980.677 223.516H975.679V222.606H981.321V221.276H976.729V220.352H981.321V219.008H976.155V218.112H981.321V216.67H982.357V218.112H987.509V219.008H982.357V220.352H986.949V221.276H982.357V222.606H987.971V223.516H982.427C982.791 224.337 983.211 225.014 983.687 225.546C984.733 224.958 985.638 224.398 986.403 223.866L986.991 224.72C986.03 225.317 985.176 225.821 984.429 226.232Z" fill="#94969B"/>
</g>
<g filter="url(#filter1_ddiii_9332_109018)">
<path d="M40 183.5C40 179.082 43.5817 175.5 48 175.5H300C304.418 175.5 308 179.082 308 183.5V236.5C308 240.918 304.418 244.5 300 244.5H48C43.5817 244.5 40 240.918 40 236.5V183.5Z" fill="white" shape-rendering="crispEdges"/>
<path d="M40 183.5C40 179.082 43.5817 175.5 48 175.5H300C304.418 175.5 308 179.082 308 183.5V236.5C308 240.918 304.418 244.5 300 244.5H48C43.5817 244.5 40 240.918 40 236.5V183.5Z" fill="url(#paint4_radial_9332_109018)" shape-rendering="crispEdges"/>
<path d="M40 183.5C40 179.082 43.5817 175.5 48 175.5H300C304.418 175.5 308 179.082 308 183.5V236.5C308 240.918 304.418 244.5 300 244.5H48C43.5817 244.5 40 240.918 40 236.5V183.5Z" fill="url(#paint5_radial_9332_109018)" shape-rendering="crispEdges"/>
<path d="M68.984 205.748C68.7707 205.268 68.6107 204.921 68.504 204.708L60.696 205.188L60.616 203.732L64.536 203.556V201.524H61.16V197.188H64.536V195.812H61.72V191.652H68.792V195.812H65.944V197.188H69.336V201.524H65.944V203.492L67.896 203.412C67.832 203.273 67.656 202.916 67.368 202.34L68.504 201.78C69.2293 203.167 69.8 204.297 70.216 205.172L68.984 205.748ZM56.136 193.108V191.716H60.36V196.676H57.896L57.736 198.868H60.28L60.008 203.572C59.976 204.244 59.8053 204.703 59.496 204.948C59.1867 205.193 58.6587 205.316 57.912 205.316H56.376L56.088 203.924H57.768C58.0453 203.924 58.2427 203.897 58.36 203.844C58.488 203.78 58.5733 203.684 58.616 203.556C58.6587 203.417 58.6853 203.199 58.696 202.9C58.728 202.537 58.7547 202.095 58.776 201.572C58.808 201.049 58.8293 200.607 58.84 200.244H56.264L56.648 195.316H58.968V193.108H56.136ZM67.416 192.868H63.064V194.596H67.416V192.868ZM62.552 198.404V200.308H64.536V198.404H62.552ZM67.976 200.308V198.404H65.944V200.308H67.976ZM72.024 196.98H86.12V198.708H72.024V196.98ZM99.32 201.396C100.045 202.431 101.053 203.396 102.344 204.292L101.448 205.716C100.189 204.756 99.1867 203.753 98.44 202.708C97.6933 203.679 96.6213 204.703 95.224 205.78L94.264 204.564L94.792 204.18L88.12 204.932L87.992 203.444L89.704 203.284L90.904 203.172V200.884H88.376V199.46H90.904V197.652L88.584 197.796L88.264 196.484C88.6053 196.089 88.968 195.593 89.352 194.996C89.7467 194.399 90.0933 193.817 90.392 193.252H88.104V191.828H95.16V193.252H91.96C91.672 193.785 91.3413 194.351 90.968 194.948C90.6053 195.545 90.3013 196.015 90.056 196.356L93.048 196.196C92.8347 195.748 92.568 195.22 92.248 194.612L93.368 194.068C93.656 194.548 94.1147 195.396 94.744 196.612C95.2347 195.865 95.672 195.001 96.056 194.02C96.4507 193.028 96.7547 192.004 96.968 190.948L98.392 191.204C98.2533 191.897 98.0507 192.649 97.784 193.46H102.168V194.964H101.176C101.005 196.361 100.771 197.577 100.472 198.612C100.184 199.636 99.8 200.564 99.32 201.396ZM97.208 194.964C97.208 194.964 97.2027 194.969 97.192 194.98C97.32 196.015 97.4853 196.937 97.688 197.748C97.8907 198.559 98.1627 199.311 98.504 200.004C98.8347 199.332 99.096 198.596 99.288 197.796C99.48 196.996 99.6453 196.052 99.784 194.964H97.208ZM95 204.02C96.0987 203.188 96.9787 202.319 97.64 201.412C97 200.196 96.5147 198.724 96.184 196.996C95.9387 197.412 95.7253 197.743 95.544 197.988L95.096 197.3L95.224 197.54L93.992 198.164L93.672 197.476L92.344 197.556V199.46H94.84V200.884H92.344V203.028L94.984 202.74L95 203.38V204.02ZM108.776 195.94C108.435 195.663 108.072 195.375 107.688 195.076V205.572H106.184V190.964H107.688V193.332C108.275 193.759 108.867 194.207 109.464 194.676L108.776 195.94ZM114.728 203.46H118.376V204.948H108.888V203.46H113.176V200.052H109.72V198.564H113.176V195.636H111.064C110.829 196.511 110.579 197.311 110.312 198.036L108.904 197.556C109.555 195.849 110.04 193.956 110.36 191.876L111.784 192.052C111.656 192.863 111.539 193.54 111.432 194.084H113.176V191.028H114.728V194.084H118.072V195.636H114.728V198.564H117.816V200.052H114.728V203.46ZM104.008 199.14C104.253 197.871 104.461 196.015 104.632 193.572L105.864 193.668C105.789 194.521 105.683 195.54 105.544 196.724C105.416 197.897 105.304 198.777 105.208 199.364L104.008 199.14Z" fill="#0A0B10"/>
<path d="M59.466 220.66C59.7927 220.165 60.1193 219.629 60.446 219.05L61.356 219.61C60.936 220.338 60.4133 221.141 59.788 222.018C59.1627 222.895 58.5653 223.67 57.996 224.342L60.964 223.852L60.978 224.93L56.568 225.616L56.344 224.552C57.184 223.703 58.0053 222.723 58.808 221.612L56.19 221.92L55.966 220.884C56.4793 220.305 56.9973 219.624 57.52 218.84C58.052 218.047 58.4953 217.295 58.85 216.586L59.788 216.978C59.4427 217.613 59.0413 218.285 58.584 218.994C58.136 219.703 57.7207 220.319 57.338 220.842L59.466 220.66ZM66.032 216.656H67.068V229.522H66.032V224.944L62.154 226.456L61.678 225.476C61.846 225.345 61.9533 225.238 62 225.154C62.0467 225.07 62.07 224.939 62.07 224.762V217.93H63.106V224.93L66.032 223.824V216.656ZM56.008 228.724L55.854 227.618L61.286 226.75L61.356 227.884L56.008 228.724ZM72.472 227.562L74.012 226.582L74.236 227.534L71.59 229.144L71.114 228.262C71.254 228.178 71.3473 228.099 71.394 228.024C71.45 227.94 71.478 227.823 71.478 227.674V224.65H69.938V223.67H71.478V221.948H70.442V221.08L70.302 221.29L69.812 220.352C70.4373 219.465 71.0113 218.201 71.534 216.558L72.486 216.824C72.262 217.515 72.052 218.084 71.856 218.532H74.124V219.512H71.38C71.1187 220.016 70.8293 220.501 70.512 220.968H73.76V221.948H72.472V223.67H74.138V224.65H72.472V227.562ZM80.242 219.372V221.15H82.202V222.116H74.208V221.15H76V219.372H74.586V218.434H76V216.768H76.994V218.434H79.248V216.768H80.242V218.434H81.824V219.372H80.242ZM79.248 219.372H76.994V221.15H79.248V219.372ZM76 229.424H75.006V223.32H81.278V229.396H80.27V228.724H76V229.424ZM80.27 225.588V224.272H76V225.588H80.27ZM76 226.484V227.814H80.27V226.484H76ZM86.5 220.73H96.146V221.738H86.5C86.4907 222.923 86.444 223.917 86.36 224.72C86.276 225.523 86.1173 226.288 85.884 227.016C85.6507 227.744 85.3053 228.509 84.848 229.312L83.896 228.626C84.3533 227.851 84.694 227.133 84.918 226.47C85.142 225.807 85.2867 225.093 85.352 224.328C85.4267 223.563 85.464 222.541 85.464 221.262V217.832C87.004 217.795 88.6607 217.706 90.434 217.566C92.2073 217.426 93.7753 217.249 95.138 217.034L95.404 218.098C94.228 218.266 92.8093 218.415 91.148 218.546C89.496 218.677 87.9467 218.775 86.5 218.84V220.73ZM88.572 229.396H87.522V223.712H94.956V229.396H93.906V228.43H88.572V229.396ZM93.906 227.478V224.706H88.572V227.478H93.906ZM109.012 218.336V229.368H107.934V228.5H100.528V229.41H99.45V218.336H102.726C102.997 217.645 103.202 217.067 103.342 216.6L104.574 216.782C104.471 217.146 104.28 217.664 104 218.336H109.012ZM107.934 221.402V219.386H100.528V221.402H107.934ZM107.934 224.412V222.41H100.528V224.412H107.934ZM100.528 225.42V227.478H107.934V225.42H100.528ZM123.936 219.358C123.908 220.338 123.866 221.635 123.81 223.25C123.763 224.865 123.717 226.204 123.67 227.268C123.651 227.707 123.577 228.052 123.446 228.304C123.325 228.547 123.129 228.719 122.858 228.822C122.587 228.925 122.214 228.976 121.738 228.976H120.268L120.058 227.94H121.318C121.682 227.94 121.953 227.907 122.13 227.842C122.317 227.777 122.447 227.665 122.522 227.506C122.606 227.338 122.657 227.086 122.676 226.75C122.704 226.367 122.741 225.425 122.788 223.922C122.844 222.419 122.886 221.248 122.914 220.408H120.632C120.567 222.209 120.473 223.591 120.352 224.552C120.231 225.504 120.007 226.353 119.68 227.1C119.363 227.847 118.863 228.654 118.182 229.522L117.244 228.878C117.907 228.085 118.392 227.357 118.7 226.694C119.017 226.022 119.241 225.229 119.372 224.314C119.503 223.39 119.591 222.088 119.638 220.408H118.112V219.358H119.652L119.708 216.642H120.702C120.702 217.277 120.688 218.182 120.66 219.358H123.936ZM112.764 217.734H117.636V218.77H112.764V217.734ZM117.188 228.01L116.95 227.352L112.512 227.842L112.344 226.946C112.727 226.293 113.095 225.541 113.45 224.692C113.805 223.843 114.089 223.04 114.304 222.284H112.176V221.29H118.07V222.284H115.368C115.172 222.956 114.892 223.749 114.528 224.664C114.173 225.579 113.87 226.274 113.618 226.75L116.6 226.442C116.236 225.443 115.895 224.58 115.578 223.852L116.502 223.502C116.866 224.361 117.403 225.705 118.112 227.534L117.188 228.01ZM132.868 228.136H138.482V228.976H126.26V228.136H131.846V227.142H127.17V226.358H131.846V225.378H127.66V221.08H131.846V220.1H126.274V219.274H131.846V218.168C129.858 218.252 128.318 218.299 127.226 218.308L127.184 217.398C128.631 217.379 130.362 217.328 132.378 217.244C134.403 217.16 136.06 217.071 137.348 216.978L137.488 217.874C136.041 217.977 134.501 218.061 132.868 218.126V219.274H138.468V220.1H132.868V221.08H137.082V225.378H132.868V226.358H137.586V227.142H132.868V228.136ZM131.846 222.844V221.878H128.682V222.844H131.846ZM136.06 222.844V221.878H132.868V222.844H136.06ZM128.682 223.614V224.566H131.846V223.614H128.682ZM132.868 223.614V224.566H136.06V223.614H132.868ZM145.636 222.032L145.552 223.768C145.477 225.569 145.421 226.745 145.384 227.296C145.356 227.912 145.221 228.337 144.978 228.57C144.735 228.803 144.32 228.92 143.732 228.92H142.598L142.402 227.87H143.382C143.746 227.87 144.007 227.795 144.166 227.646C144.325 227.497 144.413 227.259 144.432 226.932C144.469 226.437 144.507 225.793 144.544 225C144.581 224.207 144.609 223.567 144.628 223.082H142.64C142.593 224.146 142.514 225.014 142.402 225.686C142.299 226.358 142.136 226.974 141.912 227.534C141.697 228.085 141.38 228.71 140.96 229.41L140.064 228.766C140.493 228.057 140.815 227.403 141.03 226.806C141.245 226.209 141.399 225.513 141.492 224.72C141.585 223.927 141.646 222.849 141.674 221.486C141.693 221.243 141.711 220.707 141.73 219.876H140.512V218.798H143.214C142.803 217.641 142.57 216.997 142.514 216.866L143.522 216.586C143.578 216.717 143.699 217.034 143.886 217.538C144.073 218.033 144.217 218.453 144.32 218.798H146.308V219.876H142.738L142.696 221.64L142.682 222.032H145.636ZM149.78 225.756C150.527 226.764 151.479 227.655 152.636 228.43L151.992 229.396C150.835 228.575 149.883 227.674 149.136 226.694C148.399 227.637 147.386 228.57 146.098 229.494L145.398 228.556C146.751 227.679 147.792 226.755 148.52 225.784C147.82 224.589 147.325 223.245 147.036 221.752C146.765 222.209 146.532 222.569 146.336 222.83L145.72 221.822C146.168 221.243 146.611 220.455 147.05 219.456C147.489 218.457 147.801 217.515 147.988 216.628L149.038 216.796C148.879 217.487 148.66 218.196 148.38 218.924H152.58V220.03H151.46C151.32 221.271 151.119 222.349 150.858 223.264C150.597 224.169 150.237 225 149.78 225.756ZM147.778 220.38C147.983 222.088 148.445 223.563 149.164 224.804C149.509 224.169 149.785 223.465 149.99 222.69C150.195 221.915 150.345 221.029 150.438 220.03H147.932L147.778 220.38ZM163.122 221.332H166.65V222.41H163.122V229.438H162.058V222.41H158.446V221.332H162.058V216.656H163.122V221.332ZM157.382 220.142C156.486 218.929 155.772 218.005 155.24 217.37L156.066 216.698C156.654 217.389 157.387 218.303 158.264 219.442L157.382 220.142ZM157.144 227.016L159.216 225.406L159.594 226.484L156.192 229.032L155.632 228.22C155.809 228.071 155.921 227.945 155.968 227.842C156.024 227.73 156.052 227.581 156.052 227.394V222.2H154.33V221.108H157.144V227.016ZM170.738 218.532C170.215 219.26 169.688 219.871 169.156 220.366L168.456 219.68C168.895 219.297 169.352 218.789 169.828 218.154C170.304 217.51 170.668 216.936 170.92 216.432L171.816 216.74C171.601 217.169 171.424 217.491 171.284 217.706H174.728V218.532H172.418C172.707 218.915 172.917 219.199 173.048 219.386L172.334 219.82C172.082 219.428 171.783 218.999 171.438 218.532H170.738ZM174.182 219.428C174.527 219.036 174.868 218.579 175.204 218.056C175.54 217.524 175.843 216.987 176.114 216.446L177.038 216.754C176.814 217.183 176.641 217.501 176.52 217.706H180.65V218.532H178.074C178.363 218.961 178.559 219.269 178.662 219.456L177.92 219.834C177.715 219.479 177.509 219.148 177.304 218.84L177.108 218.532H176.016C175.68 219.036 175.358 219.493 175.05 219.904L174.182 219.428ZM180.692 226.498V227.352H177.626V229.438H176.632V227.352H172.572C172.413 227.837 172.115 228.257 171.676 228.612C171.237 228.967 170.654 229.298 169.926 229.606L169.352 228.85C169.987 228.579 170.467 228.332 170.794 228.108C171.13 227.875 171.368 227.623 171.508 227.352H168.414V226.498H171.676C171.685 226.405 171.69 226.218 171.69 225.938L171.704 225.364H169.996V220.03H179.138V225.364H177.626V226.498H180.692ZM178.158 221.612V220.828H170.976V221.612H178.158ZM170.976 223.11H178.158V222.312H170.976V223.11ZM178.158 223.796H170.976V224.566H178.158V223.796ZM176.632 226.498V225.364H172.712L172.698 226.498H176.632Z" fill="#94969B"/>
</g>
<g filter="url(#filter2_ddiii_9332_109018)">
<path d="M90 49.5C90 45.0817 93.5817 41.5 98 41.5H362C366.418 41.5 370 45.0817 370 49.5V102.5C370 106.918 366.418 110.5 362 110.5H98C93.5817 110.5 90 106.918 90 102.5V49.5Z" fill="white" shape-rendering="crispEdges"/>
<path d="M90 49.5C90 45.0817 93.5817 41.5 98 41.5H362C366.418 41.5 370 45.0817 370 49.5V102.5C370 106.918 366.418 110.5 362 110.5H98C93.5817 110.5 90 106.918 90 102.5V49.5Z" fill="url(#paint6_radial_9332_109018)" shape-rendering="crispEdges"/>
<path d="M118.024 59.924H107.976V61.876H106.456V58.532H112.472L111.88 57.012L113.608 56.804L114.28 58.532H119.56V61.908H118.024V59.924ZM112.392 63.572C111.72 63.1453 110.589 62.4947 109 61.62L109.608 60.404C110.909 61.108 112.04 61.7373 113 62.292L112.392 63.572ZM119.96 67.316H114.664C114.611 67.444 114.52 67.6253 114.392 67.86L116.408 68.74L119.864 70.212L119.144 71.604C116.467 70.3347 114.589 69.46 113.512 68.98C112.893 69.5773 112.051 70.084 110.984 70.5C109.928 70.9267 108.536 71.3213 106.808 71.684L106.248 70.18C108.2 69.8173 109.688 69.4173 110.712 68.98C111.747 68.5427 112.488 67.988 112.936 67.316H106.04V65.908H111.24C110.6 65.5133 109.4 64.836 107.64 63.876L108.248 62.692L108.68 62.916C108.947 63.0547 109.459 63.332 110.216 63.748C110.984 64.1533 111.565 64.4733 111.96 64.708L111.288 65.908H113.512C113.64 65.396 113.72 64.6173 113.752 63.572L113.768 62.916L113.832 60.724H115.368C115.368 61.2253 115.347 62.02 115.304 63.108L115.288 63.78C115.277 64.484 115.208 65.1933 115.08 65.908H119.96V67.316ZM136.216 60.052V61.604H134.568V69.268C134.568 69.844 134.499 70.2813 134.36 70.58C134.221 70.8893 133.976 71.108 133.624 71.236C133.272 71.3747 132.771 71.444 132.12 71.444H130.104L129.8 69.844H131.688C132.093 69.844 132.387 69.8173 132.568 69.764C132.76 69.7107 132.883 69.6147 132.936 69.476C133 69.3373 133.032 69.108 133.032 68.788V61.604H128.36V60.052H133.032V56.98H134.568V60.052H136.216ZM124.056 70.996H122.6V58.052H127.752V69.828H124.056V70.996ZM126.312 63.204V59.572H124.056V63.204H126.312ZM130.696 66.996C130.419 66.4627 130.072 65.8173 129.656 65.06C129.251 64.292 128.92 63.6947 128.664 63.268L129.896 62.58C130.216 63.1133 130.589 63.7533 131.016 64.5C131.443 65.2467 131.768 65.844 131.992 66.292L130.696 66.996ZM124.056 64.644V68.308H126.312V64.644H124.056ZM142.008 57.044H143.544V63.14C143.544 64.8253 143.459 66.1427 143.288 67.092C143.117 68.0413 142.792 68.868 142.312 69.572C141.832 70.2653 141.085 71.0387 140.072 71.892L138.824 70.708C139.795 69.9827 140.493 69.3373 140.92 68.772C141.347 68.2067 141.635 67.5187 141.784 66.708C141.933 65.8973 142.008 64.6973 142.008 63.108V57.044ZM144.456 59.62V58.1H151.48V71.396H149.896V70.484H143.832V68.98H149.896V64.9H144.648V63.396H149.896V59.62H144.456ZM138.808 58.276H140.248V67.828H138.808V58.276ZM154.968 71.62V57.636H167.528V71.62H166.008V70.74H156.488V71.62H154.968ZM156.488 59.108V69.316H166.008V59.108H156.488ZM164.28 68.644C162.915 67.1933 161.891 66.1267 161.208 65.444C160.92 66.02 160.504 66.5693 159.96 67.092C159.427 67.6147 158.744 68.1427 157.912 68.676L156.968 67.412C158.099 66.7613 158.92 66.1267 159.432 65.508C159.955 64.8787 160.264 64.084 160.36 63.124H157.208V61.716H160.456C160.499 60.564 160.515 59.8653 160.504 59.62H162.008C161.976 60.6333 161.949 61.332 161.928 61.716H165.256V63.124H161.832L161.784 63.556L161.72 63.972L163.272 65.492L165.288 67.492L164.28 68.644Z" fill="#0A0B10"/>
<path d="M109.844 94.5H108.626V85.008H105.322V83.86H113.134V85.008H109.844V94.5ZM118.391 88.564H120.967V89.642H118.391V92.274H117.229V89.642H114.639V88.564H117.229V85.96H118.391V88.564ZM126.599 94.696C125.47 94.696 124.593 94.22 123.967 93.268C123.342 92.3067 123.029 90.944 123.029 89.18C123.029 87.416 123.342 86.058 123.967 85.106C124.593 84.1447 125.47 83.664 126.599 83.664C127.738 83.664 128.615 84.1447 129.231 85.106C129.857 86.058 130.169 87.416 130.169 89.18C130.169 90.944 129.857 92.3067 129.231 93.268C128.615 94.22 127.738 94.696 126.599 94.696ZM126.599 93.576C127.337 93.576 127.906 93.198 128.307 92.442C128.718 91.6767 128.923 90.5893 128.923 89.18C128.923 87.7707 128.718 86.688 128.307 85.932C127.906 85.1667 127.337 84.784 126.599 84.784C125.862 84.784 125.288 85.1667 124.877 85.932C124.476 86.688 124.275 87.7707 124.275 89.18C124.275 90.5893 124.476 91.6767 124.877 92.442C125.288 93.198 125.862 93.576 126.599 93.576ZM136.775 85.386C136.233 86.562 135.617 87.6213 134.927 88.564V95.396H133.863V89.894C133.387 90.426 132.878 90.9347 132.337 91.42L131.833 90.3C132.551 89.7027 133.228 88.984 133.863 88.144C134.497 87.304 135.067 86.3847 135.571 85.386H131.945V84.35H136.061C136.35 83.678 136.583 83.0527 136.761 82.474L137.797 82.712C137.619 83.272 137.423 83.818 137.209 84.35H144.083V85.386H136.775ZM140.429 89.81V93.534H144.209V94.556H135.543V93.534H139.365V89.81H136.145V88.802H139.365V86.408H140.429V88.802H143.705V89.81H140.429ZM146.337 87.92L146.127 86.884C146.892 85.9413 147.723 84.49 148.619 82.53L149.487 82.95C149.029 83.8647 148.628 84.644 148.283 85.288C147.947 85.9227 147.639 86.4407 147.359 86.842L149.081 86.646L149.781 85.33L150.663 85.82C149.72 87.5933 148.749 89.124 147.751 90.412L150.397 90.048L150.425 91.028L146.561 91.574L146.365 90.552C147.111 89.7027 147.83 88.7227 148.521 87.612L146.337 87.92ZM156.907 93.142C157.037 92.6193 157.14 92.0827 157.215 91.532L158.125 91.966C157.994 92.638 157.868 93.2167 157.747 93.702C157.588 94.2993 157.378 94.724 157.117 94.976C156.855 95.2373 156.547 95.368 156.193 95.368C155.847 95.368 155.53 95.2607 155.241 95.046C154.951 94.8313 154.634 94.4533 154.289 93.912C154.149 93.6787 154.027 93.4407 153.925 93.198C152.935 93.8793 151.955 94.4253 150.985 94.836L150.551 93.87C151.615 93.4313 152.623 92.8853 153.575 92.232C153.341 91.4853 153.136 90.5193 152.959 89.334L150.719 89.614L150.635 88.62L152.819 88.354C152.763 87.9433 152.702 87.3927 152.637 86.702L151.069 86.884L150.985 85.932L152.539 85.75V85.694C152.501 85.2833 152.469 84.7513 152.441 84.098C152.413 83.4353 152.394 82.9733 152.385 82.712L153.435 82.684C153.435 82.8427 153.491 83.8273 153.603 85.638L157.831 85.148L157.943 86.086L153.673 86.576L153.715 86.996C153.78 87.7053 153.822 88.1113 153.841 88.214L158.153 87.682L158.237 88.662L153.967 89.208C154.079 90.0667 154.237 90.8647 154.443 91.602C155.413 90.8367 156.253 90.0387 156.963 89.208L157.607 89.894C156.795 90.8273 155.852 91.7233 154.779 92.582C154.872 92.834 155.003 93.1047 155.171 93.394C155.497 93.926 155.838 94.192 156.193 94.192C156.37 94.192 156.505 94.1267 156.599 93.996C156.701 93.856 156.804 93.5713 156.907 93.142ZM156.179 85.12C155.759 84.6627 155.185 84.07 154.457 83.342L155.087 82.74L155.409 83.062C156.006 83.622 156.496 84.1073 156.879 84.518L156.179 85.12ZM145.987 93.408L150.495 92.638L150.551 93.716L146.127 94.472L145.987 93.408ZM162.129 93.744H172.307V94.808H161.051V83.594H172.167V84.672H168.835V89.74C168.835 90.0573 168.886 90.272 168.989 90.384C169.091 90.496 169.292 90.552 169.591 90.552H170.011C170.263 90.552 170.449 90.5333 170.571 90.496C170.692 90.4493 170.776 90.3653 170.823 90.244C170.869 90.1133 170.902 89.9127 170.921 89.642C170.939 89.194 170.949 88.634 170.949 87.962L171.915 88.172L171.845 90.006C171.817 90.454 171.747 90.79 171.635 91.014C171.532 91.238 171.359 91.3967 171.117 91.49C170.883 91.574 170.543 91.616 170.095 91.616H169.255C168.732 91.616 168.359 91.504 168.135 91.28C167.92 91.056 167.813 90.664 167.813 90.104V84.672H165.797V86.982C165.797 87.906 165.731 88.662 165.601 89.25C165.47 89.838 165.223 90.3747 164.859 90.86C164.504 91.3453 163.972 91.8587 163.263 92.4L162.605 91.532C163.249 91.0467 163.72 90.608 164.019 90.216C164.317 89.8147 164.513 89.376 164.607 88.9C164.7 88.424 164.747 87.7613 164.747 86.912V84.672H162.129V93.744ZM176.269 84.392H174.183V83.454H180.665V84.392H178.789V86.058H180.413V94.612H175.499V95.466H174.631V86.058H176.269V84.392ZM185.411 91.098L186.419 91.294L186.321 93.226C186.283 93.7207 186.218 94.0893 186.125 94.332C186.031 94.5653 185.877 94.7287 185.663 94.822C185.457 94.9247 185.14 94.976 184.711 94.976H183.059C182.648 94.976 182.331 94.9247 182.107 94.822C181.883 94.7287 181.724 94.5607 181.631 94.318C181.537 94.0753 181.491 93.7253 181.491 93.268V87.822H184.809V84.546H181.323V83.524H185.845V88.886H182.527V93.044C182.527 93.3053 182.545 93.4967 182.583 93.618C182.629 93.7393 182.709 93.8233 182.821 93.87C182.933 93.9167 183.11 93.94 183.353 93.94H184.389C184.659 93.94 184.86 93.912 184.991 93.856C185.121 93.8 185.21 93.702 185.257 93.562C185.313 93.422 185.35 93.198 185.369 92.89L185.411 91.098ZM177.081 86.058H177.949V84.392H177.081V86.058ZM176.381 86.982H175.485V90.216C175.839 89.8333 176.077 89.432 176.199 89.012C176.32 88.592 176.381 87.99 176.381 87.206V86.982ZM179.013 90.202C178.639 90.202 178.369 90.1227 178.201 89.964C178.033 89.8053 177.949 89.5347 177.949 89.152V86.982H177.081V87.346C177.071 88.186 176.992 88.8533 176.843 89.348C176.693 89.8427 176.413 90.3373 176.003 90.832L175.499 90.454V91.378H179.531V90.202H179.013ZM179.545 89.446V86.982H178.649V88.844C178.649 89.068 178.695 89.2267 178.789 89.32C178.882 89.404 179.045 89.446 179.279 89.446H179.545ZM175.499 92.302V93.702H179.531V92.302H175.499ZM189.919 96.026C190.273 95.858 190.53 95.6527 190.689 95.41C190.857 95.1673 190.941 94.864 190.941 94.5H190.143V93.03H191.599V94.5C191.599 95.4427 191.151 96.1427 190.255 96.6L189.919 96.026ZM213.369 84.406V91.014H214.559V92.022H202.379V91.014H203.597V84.406H206.509V82.768H207.503V84.406H209.463V82.768H210.443V84.406H213.369ZM206.509 87.71V85.442H204.605V87.71H206.509ZM209.463 87.71V85.442H207.503V87.71H209.463ZM212.361 87.71V85.442H210.443V87.71H212.361ZM206.509 88.69H204.605V91.014H206.509V88.69ZM207.503 91.014H209.463V88.69H207.503V91.014ZM212.361 88.69H210.443V91.014H212.361V88.69ZM202.421 94.654C204.119 93.9633 205.603 93.2073 206.873 92.386L207.391 93.296C205.972 94.136 204.451 94.9107 202.827 95.62L202.421 94.654ZM209.897 92.456C210.942 92.904 212.445 93.618 214.405 94.598L213.943 95.522C213.364 95.2047 212.655 94.8453 211.815 94.444C210.984 94.0427 210.209 93.688 209.491 93.38L209.897 92.456ZM225.017 90.146L224.835 89.18H225.913C226.305 89.18 226.571 89.124 226.711 89.012C226.86 88.8907 226.935 88.6527 226.935 88.298V82.908H227.915V88.564C227.915 88.9747 227.863 89.292 227.761 89.516C227.667 89.74 227.499 89.9033 227.257 90.006C227.023 90.0993 226.683 90.146 226.235 90.146H225.017ZM216.617 89.978C217.139 89.4553 217.517 89.0073 217.751 88.634C217.984 88.2607 218.133 87.8593 218.199 87.43H216.589V86.492H218.269V86.114V84.434H216.939V83.454H223.449V84.434H222.133V86.492H223.743V87.43H222.133V90.006H221.153V87.43H219.193C219.118 88.0367 218.955 88.5733 218.703 89.04C218.451 89.5067 218.031 90.0247 217.443 90.594L216.617 89.978ZM224.289 83.636H225.269V88.326H224.289V83.636ZM219.249 84.434V86.128V86.492H221.153V84.434H219.249ZM223.099 92.274V94.024H228.657V94.976H216.407V94.024H222.035V92.274H217.751V91.308H222.035V90.314H223.099V91.308H227.355V92.274H223.099ZM238.653 84.546C237.215 84.6953 236.17 84.7887 235.517 84.826L235.433 83.832C236.45 83.7853 237.598 83.6967 238.877 83.566C240.155 83.426 241.233 83.2627 242.111 83.076L242.293 84.07C241.621 84.182 240.739 84.3033 239.647 84.434V87.234H242.237V88.186H239.647V91.322H242.405V92.302H235.783V86.366H236.791V91.322H238.653V84.546ZM242.769 93.982L242.601 94.99H237.463C236.473 94.99 235.591 94.864 234.817 94.612C234.051 94.36 233.379 93.9633 232.801 93.422C232.334 94.094 231.727 94.7893 230.981 95.508L230.323 94.696C231.088 93.996 231.69 93.3193 232.129 92.666C231.522 91.8633 231.037 90.8087 230.673 89.502L231.597 89.18C231.877 90.1973 232.241 91.0467 232.689 91.728C232.913 91.2707 233.099 90.7853 233.249 90.272C233.407 89.7493 233.552 89.1613 233.683 88.508H230.869V87.626L233.291 84.658H230.771V83.664H234.565V84.658L232.199 87.542H234.621V88.48C234.462 89.3387 234.28 90.09 234.075 90.734C233.879 91.378 233.636 91.9753 233.347 92.526C233.869 93.0393 234.495 93.4127 235.223 93.646C235.951 93.87 236.823 93.982 237.841 93.982H242.769ZM247.151 86.226C246.917 85.8713 246.595 85.4047 246.185 84.826C245.774 84.2473 245.447 83.804 245.205 83.496L246.017 82.838C246.306 83.202 246.969 84.098 248.005 85.526L247.151 86.226ZM250.609 88.368C250.562 89.3293 250.417 90.146 250.175 90.818C249.932 91.49 249.526 92.232 248.957 93.044L248.061 92.4C248.481 91.8213 248.793 91.3033 248.999 90.846C249.213 90.3887 249.358 89.8847 249.433 89.334C249.517 88.7833 249.559 88.0693 249.559 87.192V83.496H255.733V88.368H250.609ZM254.669 87.374V84.518H250.623V87.374H254.669ZM256.825 93.926L256.615 94.948H250.777C250.077 94.948 249.493 94.9013 249.027 94.808C248.56 94.724 248.145 94.57 247.781 94.346C247.426 94.1127 247.076 93.7813 246.731 93.352L245.037 95.256L244.463 94.178L246.269 92.33V88.438H244.589V87.388H247.305V92.372C247.697 92.9693 248.154 93.38 248.677 93.604C249.209 93.8187 249.937 93.926 250.861 93.926H256.825ZM251.995 88.9C253.74 90.2813 255.205 91.476 256.391 92.484L255.705 93.352C254.519 92.3067 253.063 91.0793 251.337 89.67L251.995 88.9ZM265.169 89.698V90.888L258.869 88.494V87.332L265.169 84.938V86.128L260.213 87.906L265.169 89.698ZM265.169 92.12V93.268L258.869 90.874V89.726L265.169 92.12ZM270.367 94.5H269.149V85.274L267.077 86.366V85.092L269.457 83.86H270.367V94.5ZM280.801 82.614H281.823V90.902H280.801V82.614ZM277.553 91.406C276.76 90.7153 276.233 90.2627 275.971 90.048V95.452H275.005V89.642C274.483 90.9207 273.871 92.0547 273.171 93.044L272.779 91.868C273.181 91.3173 273.568 90.6687 273.941 89.922C274.324 89.1753 274.655 88.41 274.935 87.626H273.003V86.59H275.005V84.756C274.38 84.868 273.75 84.966 273.115 85.05L273.003 84.056C273.675 83.972 274.478 83.846 275.411 83.678C276.345 83.5007 277.138 83.3327 277.791 83.174L277.973 84.168C277.339 84.3173 276.671 84.4573 275.971 84.588V86.59H277.889V87.626H275.971V88.942C276.167 89.0727 276.415 89.2547 276.713 89.488C277.021 89.7213 277.231 89.8847 277.343 89.978C277.521 90.1273 277.777 90.328 278.113 90.58L277.553 91.406ZM284.371 89.054C283.606 87.346 282.939 85.9133 282.369 84.756L283.279 84.294C283.942 85.6193 284.628 87.038 285.337 88.55L284.371 89.054ZM277.525 89.32C278.16 88.004 278.739 86.4173 279.261 84.56L280.213 84.84C279.98 85.6707 279.709 86.5293 279.401 87.416C279.103 88.2933 278.809 89.0633 278.519 89.726L277.525 89.32ZM276.993 94.5C278.627 93.8 279.961 93.0253 280.997 92.176C282.033 91.3267 282.911 90.272 283.629 89.012L284.441 89.628C283.611 91.028 282.673 92.1713 281.627 93.058C280.582 93.9353 279.224 94.752 277.553 95.508L276.993 94.5Z" fill="#94969B"/>
</g>
<g filter="url(#filter3_ddiii_9332_109018)">
<path d="M714 49.5C714 45.0817 717.582 41.5 722 41.5H974C978.418 41.5 982 45.0817 982 49.5V102.5C982 106.918 978.418 110.5 974 110.5H722C717.582 110.5 714 106.918 714 102.5V49.5Z" fill="white" shape-rendering="crispEdges"/>
<path d="M714 49.5C714 45.0817 717.582 41.5 722 41.5H974C978.418 41.5 982 45.0817 982 49.5V102.5C982 106.918 978.418 110.5 974 110.5H722C717.582 110.5 714 106.918 714 102.5V49.5Z" fill="url(#paint7_radial_9332_109018)" shape-rendering="crispEdges"/>
<path d="M714 49.5C714 45.0817 717.582 41.5 722 41.5H974C978.418 41.5 982 45.0817 982 49.5V102.5C982 106.918 978.418 110.5 974 110.5H722C717.582 110.5 714 106.918 714 102.5V49.5Z" fill="url(#paint8_radial_9332_109018)" shape-rendering="crispEdges"/>
<path d="M743.304 64.596C743.069 67.4973 742.936 69.0653 742.904 69.3C742.84 69.812 742.717 70.2067 742.536 70.484C742.355 70.7613 742.088 70.9587 741.736 71.076C741.395 71.1933 740.92 71.252 740.312 71.252H738.472L738.2 69.924H739.752C740.2 69.924 740.531 69.892 740.744 69.828C740.968 69.764 741.133 69.652 741.24 69.492C741.347 69.332 741.427 69.0867 741.48 68.756C741.523 68.532 741.576 68.0947 741.64 67.444C741.715 66.7827 741.768 66.2707 741.8 65.908H740.04C739.635 67.1773 739.037 68.276 738.248 69.204C737.469 70.1213 736.408 70.9747 735.064 71.764L734.12 70.66C735.357 69.9453 736.307 69.236 736.968 68.532C737.64 67.8173 738.163 66.9427 738.536 65.908H736.712C736.125 66.9533 735.373 67.86 734.456 68.628C733.539 69.3853 732.312 70.116 730.776 70.82L729.992 69.668C731.315 69.124 732.381 68.548 733.192 67.94C734.003 67.332 734.643 66.6547 735.112 65.908H733.016C732.44 66.4947 731.688 67.124 730.76 67.796L729.864 66.692C731.283 65.796 732.413 64.724 733.256 63.476H731.88V57.54H742.296V63.476H734.904C734.68 63.828 734.424 64.2013 734.136 64.596H743.304ZM740.808 59.908V58.836H733.384V59.908H740.808ZM733.384 61.108V62.212H740.808V61.108H733.384ZM747.368 57.78H759.272V69.54C759.272 70.0307 759.203 70.4093 759.064 70.676C758.936 70.9533 758.723 71.1507 758.424 71.268C758.136 71.3853 757.725 71.444 757.192 71.444H755.496L755.24 69.924H756.696C757.005 69.924 757.229 69.9027 757.368 69.86C757.507 69.8173 757.597 69.7373 757.64 69.62C757.683 69.492 757.704 69.2947 757.704 69.028V67.124H754.04V71.252H752.472V67.124H748.84C748.755 68.02 748.6 68.8147 748.376 69.508C748.152 70.2013 747.811 70.9373 747.352 71.716L745.928 70.948C746.365 70.2013 746.68 69.572 746.872 69.06C747.075 68.5373 747.208 67.9453 747.272 67.284C747.336 66.612 747.368 65.636 747.368 64.356V57.78ZM752.472 61.764V59.3H748.92V61.764H752.472ZM754.04 61.764H757.704V59.3H754.04V61.764ZM748.92 65.62H752.472V63.252H748.92V64.9V65.62ZM754.04 63.252V65.62H757.704V63.252H754.04ZM776.264 58.228V59.428H762.12V58.228H768.488C768.339 57.8547 768.168 57.476 767.976 57.092L769.592 56.756C769.741 57.0547 769.965 57.5453 770.264 58.228H776.264ZM764.344 63.556V60.388H774.04V63.556H764.344ZM765.8 62.484H772.568V61.46H765.8V62.484ZM762.92 71.508V64.548H775.464V69.62C775.464 70.0893 775.405 70.452 775.288 70.708C775.171 70.964 774.968 71.1453 774.68 71.252C774.403 71.3587 774.008 71.412 773.496 71.412H771.72L771.464 70.132H772.952C773.368 70.132 773.64 70.0733 773.768 69.956C773.896 69.8387 773.96 69.5933 773.96 69.22V65.684H764.408V71.508H762.92ZM765.992 66.692H772.392V69.908H765.992V66.692ZM767.416 68.852H770.968V67.732H767.416V68.852ZM789.464 67.252C790.2 68.3187 791.187 69.2947 792.424 70.18L791.544 71.668C790.36 70.7507 789.368 69.7267 788.568 68.596C787.8 69.6093 786.723 70.6493 785.336 71.716L784.264 70.516C785.789 69.4493 786.952 68.3667 787.752 67.268C787.101 66.084 786.611 64.7187 786.28 63.172C786.195 63.3213 786.056 63.5453 785.864 63.844L784.984 62.612C785.432 61.9507 785.864 61.0707 786.28 59.972C786.707 58.8733 787.005 57.876 787.176 56.98L788.648 57.204C788.477 57.94 788.248 58.724 787.96 59.556H792.296V61.076H791.224C791.075 62.3987 790.856 63.556 790.568 64.548C790.291 65.54 789.923 66.4413 789.464 67.252ZM785.512 59.044V60.452H778.344V59.044H781.352C781.16 58.3187 780.995 57.732 780.856 57.284L782.36 57.044C782.488 57.428 782.643 57.972 782.824 58.676L782.92 59.044H785.512ZM784.664 65.124C784.12 64.3347 783.267 63.1773 782.104 61.652L783.16 60.884C784.109 62.0893 784.947 63.204 785.672 64.228L784.664 65.124ZM781.496 61.604C780.781 62.9587 779.923 64.18 778.92 65.268L777.96 64.372C778.899 63.316 779.683 62.164 780.312 60.916L781.496 61.604ZM787.288 61.236C787.533 63.028 787.976 64.5587 788.616 65.828C788.936 65.1773 789.192 64.4733 789.384 63.716C789.576 62.948 789.736 62.068 789.864 61.076H787.368L787.288 61.236ZM783.688 70.5L782.12 68.612C781.299 69.7107 780.227 70.7133 778.904 71.62L778.056 70.244C779.4 69.4227 780.445 68.5053 781.192 67.492L779.368 65.38L780.408 64.484C780.867 64.9533 781.395 65.524 781.992 66.196C782.344 65.5133 782.632 64.7933 782.856 64.036L784.152 64.5C783.843 65.5027 783.448 66.4307 782.968 67.284C783.832 68.2867 784.445 69.0173 784.808 69.476L783.688 70.5Z" fill="#0A0B10"/>
<path d="M729.854 88.032H742.132V89.25H729.854V88.032ZM747.312 92.442L747.508 93.436L745.24 95.102L744.694 94.248C744.834 94.136 744.932 94.0333 744.988 93.94C745.053 93.8373 745.086 93.7113 745.086 93.562V90.552H743.854V89.656H745.086V87.794H744.386V87.22L744.246 87.472L743.672 86.674C743.98 86.1233 744.279 85.4747 744.568 84.728C744.867 83.972 745.105 83.244 745.282 82.544L746.15 82.74C746.001 83.2907 745.819 83.8693 745.604 84.476H747.396V85.372H745.254C745.039 85.876 744.806 86.3847 744.554 86.898H747.088V87.794H745.954V89.656H747.298V90.552H745.954V93.492L747.312 92.442ZM750.742 87.78H752.436V86.632H750.35V85.82H752.436V84.672H750.756V83.86H752.436V82.642H753.304V83.86H755.474V85.82H756.244V86.632H755.474V88.578H753.304V89.698H755.684V90.496H753.304V91.602H756.048V92.414H753.304V93.66H752.436V92.414H750.21V91.602H752.436V90.496H750.658V89.698H752.436V88.578H750.742V87.78ZM756.258 93.982L756.09 94.906H752.338C751.61 94.906 750.961 94.7847 750.392 94.542C749.832 94.3087 749.342 93.9167 748.922 93.366C748.586 94.01 748.138 94.696 747.578 95.424L746.822 94.738C747.466 94.01 747.979 93.2587 748.362 92.484C747.998 91.7933 747.699 90.8973 747.466 89.796L748.208 89.516C748.367 90.2347 748.563 90.8647 748.796 91.406C749.076 90.5473 749.249 89.572 749.314 88.48H747.648V87.57L749.3 84.56H747.746V83.636H750.252V84.574L748.642 87.57H750.196V88.508C750.112 89.3293 750.005 90.0527 749.874 90.678C749.743 91.3033 749.571 91.8867 749.356 92.428C749.701 92.932 750.121 93.3193 750.616 93.59C751.12 93.8513 751.722 93.982 752.422 93.982H756.258ZM754.634 84.672H753.304V85.82H754.634V84.672ZM753.304 87.78H754.634V86.632H753.304V87.78ZM763.146 88.97L763.188 89.362L761.214 89.936V93.674C761.214 94.094 761.167 94.4067 761.074 94.612C760.981 94.8267 760.813 94.976 760.57 95.06C760.337 95.144 759.987 95.186 759.52 95.186H758.302L758.092 94.094H759.184C759.473 94.094 759.683 94.0753 759.814 94.038C759.945 94.0007 760.033 93.9307 760.08 93.828C760.127 93.716 760.15 93.5387 760.15 93.296V90.258C759.151 90.5567 758.498 90.7573 758.19 90.86L757.966 89.796L760.15 89.208V86.338H758.176V85.288H760.15V82.656H761.214V85.288H763.006V86.338H761.214V88.9C762.054 88.6573 762.67 88.466 763.062 88.326L763.146 88.97ZM770.3 83.72V84.784H767.99V93.506C767.99 94.1313 767.845 94.5653 767.556 94.808C767.267 95.06 766.753 95.186 766.016 95.186H764.42L764.196 94.108H765.722C766.039 94.108 766.277 94.0847 766.436 94.038C766.595 93.9913 766.707 93.9073 766.772 93.786C766.837 93.6647 766.87 93.4827 766.87 93.24V84.784H763.37V83.72H770.3ZM776.11 90.342C775.802 90.006 775.401 89.6093 774.906 89.152V95.55H773.87V88.844C773.338 90.2253 772.787 91.3453 772.218 92.204L771.91 90.846C772.246 90.3327 772.591 89.6747 772.946 88.872C773.31 88.0693 773.613 87.276 773.856 86.492H772.19V85.484H773.87V82.824H774.906V85.484H776.46V86.492H774.906V88.004C774.99 88.088 775.088 88.172 775.2 88.256C775.312 88.3587 775.531 88.5547 775.858 88.844C776.194 89.1333 776.46 89.376 776.656 89.572L776.11 90.342ZM777.174 83.692H783.824V84.756H777.174V83.692ZM784.398 88.242H780.982V93.94C780.982 94.472 780.87 94.836 780.646 95.032C780.431 95.2373 780.039 95.34 779.47 95.34H778.126L777.888 94.276H779.106C779.349 94.276 779.526 94.2573 779.638 94.22C779.759 94.1733 779.839 94.0987 779.876 93.996C779.923 93.884 779.946 93.7113 779.946 93.478V88.242H776.544V87.22H784.398V88.242ZM778.798 89.74C778.565 90.4773 778.271 91.2567 777.916 92.078C777.571 92.89 777.211 93.6087 776.838 94.234L775.886 93.716C776.269 93.0907 776.633 92.386 776.978 91.602C777.333 90.818 777.617 90.076 777.832 89.376L778.798 89.74ZM782.676 89.376C783.124 90.356 783.735 91.84 784.51 93.828L783.516 94.22C782.76 92.1293 782.181 90.6453 781.78 89.768L782.676 89.376ZM789.116 83.86H790.334L787.03 94.5H785.812L789.116 83.86ZM797.592 88.844H795.212V87.864H799.23V85.82H797.116C796.882 86.4173 796.654 86.9307 796.43 87.36L795.464 86.954C796.108 85.806 796.588 84.5507 796.906 83.188L797.886 83.384C797.755 83.8787 797.615 84.3687 797.466 84.854H799.23V82.642H800.196V84.854H803.416V85.82H800.196V87.864H803.92V88.844H801.064V91.28C801.064 91.56 801.11 91.756 801.204 91.868C801.297 91.9707 801.47 92.022 801.722 92.022H802.24C802.529 92.022 802.716 91.9753 802.8 91.882C802.884 91.7793 802.935 91.5693 802.954 91.252C802.982 90.58 802.996 90.146 802.996 89.95L803.892 90.146L803.864 91.616C803.845 91.98 803.784 92.26 803.682 92.456C803.588 92.6427 803.439 92.7733 803.234 92.848C803.038 92.9227 802.753 92.96 802.38 92.96H801.386C800.928 92.96 800.602 92.8573 800.406 92.652C800.21 92.4373 800.112 92.0593 800.112 91.518V88.844H798.586V88.97C798.586 89.6513 798.52 90.2207 798.39 90.678C798.259 91.1353 798.016 91.5693 797.662 91.98C797.316 92.3813 796.803 92.8247 796.122 93.31L795.464 92.512C796.08 92.1107 796.532 91.7607 796.822 91.462C797.12 91.1633 797.321 90.832 797.424 90.468C797.536 90.0947 797.592 89.5907 797.592 88.956V88.844ZM794.19 86.282C793.77 85.7033 793.112 84.8633 792.216 83.762L792.958 83.076C793.751 84.0373 794.423 84.8727 794.974 85.582L794.19 86.282ZM804.116 94.01L803.92 94.99H797.746C797.092 94.99 796.546 94.9433 796.108 94.85C795.678 94.7567 795.282 94.5887 794.918 94.346C794.563 94.1033 794.204 93.7487 793.84 93.282L792.188 95.326L791.726 94.234L793.35 92.316V88.508H791.824V87.514H794.344V92.26C794.67 92.7267 794.992 93.086 795.31 93.338C795.636 93.59 796 93.7673 796.402 93.87C796.803 93.9633 797.307 94.01 797.914 94.01H804.116ZM812.488 82.698C813.113 83.6687 813.92 84.56 814.91 85.372C815.908 86.1747 817.005 86.8467 818.2 87.388L817.682 88.424C816.87 88.032 816.123 87.598 815.442 87.122V88.018H808.54V87.206C807.774 87.7567 807.042 88.2233 806.342 88.606L805.866 87.542C807.023 86.9353 808.11 86.198 809.128 85.33C810.154 84.462 810.957 83.5847 811.536 82.698H812.488ZM815.274 87.01C813.948 86.0767 812.861 85.0127 812.012 83.818C811.256 84.8913 810.187 85.9553 808.806 87.01H815.274ZM808.652 95.326H807.56V89.74H816.408V95.34H815.344V94.584H808.652V95.326ZM815.344 93.604V90.748H808.652V93.604H815.344ZM831.43 93.52C831.43 93.968 831.374 94.3087 831.262 94.542C831.15 94.7847 830.963 94.9527 830.702 95.046C830.45 95.1393 830.09 95.186 829.624 95.186H828.014L827.818 94.192H829.274C829.572 94.192 829.796 94.1687 829.946 94.122C830.095 94.0753 830.198 93.9867 830.254 93.856C830.31 93.716 830.338 93.5107 830.338 93.24V84.392H821.7V95.298H820.622V83.398H831.43V93.52ZM822.582 86.03H829.498V86.982H822.582V86.03ZM823.394 88.48H828.644V92.904H823.394V88.48ZM824.374 89.404V91.98H827.664V89.404H824.374ZM835.686 96.026C836.04 95.858 836.297 95.6527 836.456 95.41C836.624 95.1673 836.708 94.864 836.708 94.5H835.91V93.03H837.366V94.5C837.366 95.4427 836.918 96.1427 836.022 96.6L835.686 96.026ZM860.228 85.554H854.768V87.5H858.478V88.536C857.992 89.4133 857.488 90.1693 856.966 90.804C856.452 91.4293 855.85 91.9987 855.16 92.512C856.42 93.2213 858.104 93.8187 860.214 94.304L859.906 95.452C858.655 95.1347 857.558 94.794 856.616 94.43C855.682 94.0567 854.856 93.6367 854.138 93.17C852.803 93.9633 850.918 94.738 848.482 95.494L848.09 94.374C850.171 93.786 851.856 93.1467 853.144 92.456C852.528 91.9613 851.963 91.3967 851.45 90.762C850.936 90.1273 850.432 89.3853 849.938 88.536V87.5H853.662V85.554H848.202V84.504H853.662V82.614H854.768V84.504H860.228V85.554ZM854.138 91.868C854.81 91.42 855.384 90.93 855.86 90.398C856.336 89.8567 856.779 89.236 857.19 88.536H851.17C851.571 89.2267 852.01 89.8473 852.486 90.398C852.971 90.9393 853.522 91.4293 854.138 91.868ZM866.206 89.012L866.262 89.46L864.834 89.908V93.814C864.834 94.1967 864.787 94.486 864.694 94.682C864.6 94.8873 864.446 95.0273 864.232 95.102C864.017 95.186 863.709 95.228 863.308 95.228H862.37L862.188 94.22H863.014C863.34 94.22 863.555 94.178 863.658 94.094C863.77 94.0007 863.826 93.8047 863.826 93.506V90.23L863.364 90.384C863.177 90.4493 862.967 90.5193 862.734 90.594C862.51 90.6593 862.281 90.734 862.048 90.818L861.838 89.74C862.388 89.5907 863.051 89.3993 863.826 89.166V86.226H862.272V85.246H863.826V82.628H864.834V85.246H866.262V86.226H864.834V88.844C864.834 88.844 865.016 88.7833 865.38 88.662L866.122 88.396L866.206 89.012ZM874.48 88.214H872.548V89.81H874.354V90.818H872.548V93.66C872.548 94.0893 872.492 94.416 872.38 94.64C872.268 94.864 872.076 95.0227 871.806 95.116C871.544 95.2187 871.162 95.27 870.658 95.27H869.216L869.034 94.22H870.406C870.723 94.22 870.956 94.1967 871.106 94.15C871.264 94.094 871.372 94.0007 871.428 93.87C871.484 93.7393 871.512 93.5387 871.512 93.268V90.818H866.444V89.81H871.512V88.214H866.22V87.178H869.762V85.47H866.99V84.462H869.762V82.656H870.798V84.462H873.836V85.47H870.798V87.178H874.48V88.214ZM867.676 91.042C867.937 91.294 868.236 91.602 868.572 91.966C868.917 92.3207 869.239 92.6613 869.538 92.988L868.81 93.758C868.464 93.3473 868.063 92.8993 867.606 92.414L866.976 91.714L867.676 91.042ZM878.904 82.726V85.302H880.346V86.366H878.904V88.788L880.248 88.312L880.332 89.418L878.904 89.922V93.8C878.904 94.164 878.862 94.4393 878.778 94.626C878.694 94.822 878.54 94.9573 878.316 95.032C878.101 95.116 877.788 95.158 877.378 95.158H876.426L876.23 94.066H877.084C877.41 94.066 877.62 94.024 877.714 93.94C877.807 93.8467 877.854 93.6553 877.854 93.366V90.286C877.088 90.5473 876.533 90.734 876.188 90.846L876.048 89.754C876.421 89.642 877.023 89.4413 877.854 89.152V86.366H876.384V85.302H877.854V82.726H878.904ZM887.36 93.072C887.378 92.708 887.397 92.2787 887.416 91.784C887.434 91.2893 887.444 90.888 887.444 90.58L888.424 90.818C888.424 91.1447 888.414 91.5787 888.396 92.12C888.377 92.6613 888.358 93.1373 888.34 93.548C888.312 94.08 888.176 94.4533 887.934 94.668C887.691 94.892 887.271 95.004 886.674 95.004H885.778C885.274 95.004 884.905 94.8967 884.672 94.682C884.438 94.4673 884.322 94.0987 884.322 93.576V82.74H885.358V87.598C885.759 87.2247 886.188 86.7953 886.646 86.31C887.112 85.8247 887.504 85.386 887.822 84.994L888.494 85.876C888.13 86.3147 887.644 86.8373 887.038 87.444C886.431 88.0507 885.871 88.5733 885.358 89.012V93.128C885.358 93.436 885.404 93.6507 885.498 93.772C885.591 93.8933 885.773 93.954 886.044 93.954H886.632C886.912 93.954 887.098 93.8933 887.192 93.772C887.285 93.6413 887.341 93.408 887.36 93.072ZM881.97 82.88V86.8H883.93V87.892H881.97V93.478L883.72 92.386L883.888 93.59L881.144 95.228L880.514 94.206C880.672 94.1033 880.775 94.0147 880.822 93.94C880.878 93.856 880.906 93.7253 880.906 93.548V82.88H881.97ZM891.672 83.132H901.164V86.422H891.672V83.132ZM900.142 84.448V83.818H892.722V84.448H900.142ZM892.722 85.092V85.75H900.142V85.092H892.722ZM890.202 87.892V87.15H902.648V87.892H890.202ZM901.584 93.604H896.936V94.346H902.508V95.088H890.342V94.346H895.928V93.604H891.266V92.876H895.928V92.12H891.672V88.648H901.178V92.12H896.936V92.876H901.584V93.604ZM895.928 90.034V89.32H892.708V90.034H895.928ZM896.936 90.034H900.142V89.32H896.936V90.034ZM892.708 90.706V91.42H895.928V90.706H892.708ZM896.936 90.706V91.42H900.142V90.706H896.936ZM907.87 89.278C907.627 89.39 907.389 89.4927 907.156 89.586C907.1 89.614 907.034 89.642 906.96 89.67C906.894 89.698 906.815 89.7307 906.722 89.768V93.744C906.722 94.108 906.68 94.388 906.596 94.584C906.512 94.78 906.372 94.9153 906.176 94.99C905.98 95.074 905.7 95.116 905.336 95.116H904.51L904.3 94.108H905.056C905.336 94.108 905.522 94.0613 905.616 93.968C905.709 93.8747 905.756 93.6787 905.756 93.38V90.146C905.448 90.2673 905 90.44 904.412 90.664L904.174 89.642C904.444 89.5487 904.972 89.3527 905.756 89.054V86.212H904.482V85.204H905.756V82.754H906.722V85.204H907.926V86.212H906.722V88.662L907.688 88.256L907.786 88.816L907.87 89.278ZM909.102 83.188H915.276V86.086H909.102V83.188ZM910.124 85.232H914.254V84.042H910.124V85.232ZM908.318 86.94H911.692V89.796H908.318V86.94ZM916.046 89.796H912.616V86.94H916.046V89.796ZM909.186 88.984H910.852V87.752H909.186V88.984ZM915.192 87.752H913.47V88.984H915.192V87.752ZM913.204 91.854C913.698 92.3393 914.235 92.7593 914.814 93.114C915.392 93.4687 916.05 93.7767 916.788 94.038L916.382 94.99C915.616 94.6633 914.935 94.304 914.338 93.912C913.75 93.5107 913.194 93.044 912.672 92.512V95.41H911.692V92.526C911.169 93.0207 910.59 93.4733 909.956 93.884C909.321 94.2947 908.588 94.6867 907.758 95.06L907.31 94.136C908.131 93.8373 908.85 93.5013 909.466 93.128C910.091 92.7547 910.66 92.33 911.174 91.854H907.856V90.944H911.692V90.146H912.672V90.944H916.494V91.854H913.204ZM930.606 85.792H926.308V88.06H929.906V89.138H926.308V91.406H930.2V92.498H926.308V95.48H925.258V85.792H924.418C923.811 86.9867 923.13 88.0367 922.374 88.942L921.66 88.13C922.257 87.3927 922.803 86.5527 923.298 85.61C923.802 84.6673 924.231 83.6733 924.586 82.628L925.594 82.936C925.37 83.608 925.141 84.21 924.908 84.742H930.606V85.792ZM922.248 83.174C921.93 84.1633 921.557 85.12 921.128 86.044V95.396H920.064V88.088C919.69 88.7227 919.256 89.376 918.762 90.048L918.244 88.956C918.794 88.144 919.331 87.206 919.854 86.142C920.386 85.0687 920.829 83.9673 921.184 82.838L922.248 83.174Z" fill="#94969B"/>
</g>
<path d="M613.5 143H671.5" stroke="#BFC1D4"/>
<path d="M468.5 143H410.5" stroke="#BFC1D4"/>
<path d="M541 168L541 318" stroke="url(#paint9_linear_9332_109018)"/>
<path d="M541 168L541 318" stroke="url(#paint10_linear_9332_109018)"/>
<path d="M774 210H691.5C680.454 210 671.5 201.046 671.5 190V143" stroke="url(#paint11_linear_9332_109018)"/>
<path d="M308 210H390.5C401.546 210 410.5 201.046 410.5 190V143" stroke="#BFC1D4"/>
<path d="M308 210H390.5C401.546 210 410.5 201.046 410.5 190V143" stroke="url(#paint12_linear_9332_109018)"/>
<circle cx="3.14905" cy="3.14905" r="2.64905" transform="matrix(-1 0 0 1 373.149 72.8506)" fill="white" stroke="#BFC1D4"/>
<circle cx="3.14905" cy="3.14905" r="2.64905" transform="matrix(-1 0 0 1 717.149 72.8506)" fill="white" stroke="#BFC1D4"/>
<circle cx="3.14905" cy="3.14905" r="2.64905" transform="matrix(-1 0 0 1 777.149 206.851)" fill="white" stroke="#BFC1D4"/>
<g filter="url(#filter4_dddddi_9332_109018)">
<rect x="439.787" y="106" width="202.426" height="71" rx="35.5" fill="url(#paint13_linear_9332_109018)" fill-opacity="0.8"/>
</g>
<g filter="url(#filter5_d_9332_109018)">
<g clip-path="url(#paint14_diamond_9332_109018_clip_path)" data-figma-skip-parse="true"><g transform="matrix(-0.126803 0.0589149 -0.202881 -0.090276 572.632 112.042)"><rect x="0" y="0" width="1075.7" height="527.184" fill="url(#paint14_diamond_9332_109018)" opacity="1" shape-rendering="crispEdges"/><rect x="0" y="0" width="1075.7" height="527.184" transform="scale(1 -1)" fill="url(#paint14_diamond_9332_109018)" opacity="1" shape-rendering="crispEdges"/><rect x="0" y="0" width="1075.7" height="527.184" transform="scale(-1 1)" fill="url(#paint14_diamond_9332_109018)" opacity="1" shape-rendering="crispEdges"/><rect x="0" y="0" width="1075.7" height="527.184" transform="scale(-1)" fill="url(#paint14_diamond_9332_109018)" opacity="1" shape-rendering="crispEdges"/></g></g><rect x="445.83" y="112.042" width="190.34" height="58.9149" rx="29.4574" data-figma-gradient-fill="{&#34;type&#34;:&#34;GRADIENT_DIAMOND&#34;,&#34;stops&#34;:[{&#34;color&#34;:{&#34;r&#34;:0.30000001192092896,&#34;g&#34;:0.30000001192092896,&#34;b&#34;:0.30000001192092896,&#34;a&#34;:1.0},&#34;position&#34;:0.0},{&#34;color&#34;:{&#34;r&#34;:0.062745101749897003,&#34;g&#34;:0.062745101749897003,&#34;b&#34;:0.062745101749897003,&#34;a&#34;:1.0},&#34;position&#34;:1.0}],&#34;stopsVar&#34;:[{&#34;color&#34;:{&#34;r&#34;:0.30000001192092896,&#34;g&#34;:0.30000001192092896,&#34;b&#34;:0.30000001192092896,&#34;a&#34;:1.0},&#34;position&#34;:0.0},{&#34;color&#34;:{&#34;r&#34;:0.062745101749897003,&#34;g&#34;:0.062745101749897003,&#34;b&#34;:0.062745101749897003,&#34;a&#34;:1.0},&#34;position&#34;:1.0}],&#34;transform&#34;:{&#34;m00&#34;:-253.60545349121094,&#34;m01&#34;:-405.762207031250,&#34;m02&#34;:902.31628417968750,&#34;m10&#34;:117.82975769042969,&#34;m11&#34;:-180.55201721191406,&#34;m12&#34;:143.40313720703125},&#34;opacity&#34;:1.0,&#34;blendMode&#34;:&#34;NORMAL&#34;,&#34;visible&#34;:true}" shape-rendering="crispEdges"/>
<rect x="482.627" y="128.331" width="4.65574" height="9.31148" rx="1.16393" transform="rotate(45 482.627 128.331)" fill="white"/>
<rect width="4.65574" height="9.31148" rx="1.16393" transform="matrix(0.707107 -0.707107 -0.707107 -0.707107 482.627 154.667)" fill="white"/>
<rect width="4.65574" height="9.31148" rx="1.16393" transform="matrix(-0.707107 0.707107 0.707107 0.707107 496.307 128.049)" fill="white"/>
<rect x="496.307" y="154.949" width="4.65574" height="9.31148" rx="1.16393" transform="rotate(-135 496.307 154.949)" fill="white"/>
<rect x="486.174" y="131.623" width="4.65574" height="4.65574" rx="1.16393" transform="rotate(-45 486.174 131.623)" fill="white"/>
<rect width="4.65574" height="4.65574" rx="1.16393" transform="matrix(0.707107 0.707107 0.707107 -0.707107 486.174 151.375)" fill="white"/>
<rect x="476.042" y="141.499" width="4.65574" height="4.65574" rx="1.16393" transform="rotate(-45 476.042 141.499)" fill="white"/>
<rect x="496.626" y="141.499" width="4.65574" height="4.65574" rx="1.16393" transform="rotate(-45 496.626 141.499)" fill="white"/>
<path d="M517.35 151.535H538.982V154.405H514.419V129.752H538.68V132.652H531.792V143.136C531.792 143.76 531.892 144.183 532.094 144.405C532.295 144.606 532.678 144.707 533.242 144.707H534.027C534.491 144.707 534.823 144.667 535.024 144.586C535.246 144.506 535.397 144.345 535.478 144.103C535.578 143.861 535.639 143.468 535.659 142.925C535.699 142.441 535.719 141.253 535.719 139.359L538.318 139.903L538.136 143.891C538.096 144.898 537.945 145.664 537.683 146.188C537.441 146.691 537.059 147.044 536.535 147.245C536.011 147.446 535.246 147.547 534.239 147.547H532.335C531.147 147.547 530.301 147.295 529.798 146.792C529.294 146.268 529.042 145.372 529.042 144.103V132.652H525.205V137.305C525.205 139.299 525.054 140.941 524.752 142.23C524.47 143.519 523.946 144.687 523.181 145.734C522.436 146.782 521.328 147.859 519.858 148.967L517.984 146.671C519.334 145.684 520.311 144.788 520.915 143.982C521.519 143.176 521.912 142.29 522.093 141.323C522.295 140.336 522.395 138.936 522.395 137.124V132.652H517.35V151.535ZM547.11 131.897H542.88V129.48H557.019V131.897H553.243V135.099H556.566V153.892H546.112V155.674H543.786V135.099H547.11V131.897ZM566.838 146.097L569.558 146.611L569.346 150.81C569.266 151.918 569.114 152.744 568.893 153.288C568.691 153.831 568.349 154.214 567.866 154.436C567.382 154.657 566.657 154.768 565.69 154.768H562.065C561.138 154.768 560.423 154.647 559.92 154.405C559.436 154.184 559.094 153.801 558.892 153.257C558.691 152.713 558.59 151.918 558.59 150.871V138.816H565.6V132.35H558.228V129.601H568.349V141.686H561.31V150.266C561.31 150.77 561.34 151.132 561.4 151.354C561.481 151.575 561.632 151.737 561.853 151.837C562.075 151.918 562.417 151.958 562.881 151.958H564.844C565.388 151.958 565.781 151.908 566.023 151.807C566.285 151.706 566.456 151.515 566.536 151.233C566.637 150.951 566.708 150.508 566.748 149.904L566.838 146.097ZM549.375 135.099H550.977V131.897H549.375V135.099ZM547.653 137.486H545.931V143.861C546.596 143.096 547.049 142.29 547.291 141.444C547.532 140.598 547.653 139.38 547.653 137.788V137.486ZM553.333 144.405C552.487 144.405 551.883 144.224 551.521 143.861C551.158 143.499 550.977 142.894 550.977 142.048V137.486H549.406V138.151C549.365 139.984 549.194 141.414 548.892 142.441C548.59 143.468 548.026 144.496 547.2 145.523L546.112 144.647V146.52H554.21V144.405H553.333ZM554.391 142.381V137.486H552.669V141.233C552.669 141.676 552.759 141.978 552.941 142.139C553.122 142.3 553.434 142.381 553.877 142.381H554.391ZM546.112 148.907V151.565H554.21V148.907H546.112ZM577.232 133.649V136.399H574.361V130.96H585.359L584.241 128.06L587.474 127.607L588.773 130.96H598.894V136.399H595.903V133.649H577.232ZM593.909 151.656H599.589V154.375H573.576V151.656H584.996V146.399H575.902V143.74H584.996V140.054H575.238V137.365H597.897V140.054H587.957V143.74H597.263V146.399H593.063L593.909 147.487C594.977 148.836 595.641 149.702 595.903 150.085L593.909 151.656ZM587.957 146.399V151.656H593.607C592.922 150.689 591.986 149.42 590.797 147.849L592.67 146.399H587.957Z" fill="white"/>
</g>
<g clip-path="url(#paint15_diamond_9332_109018_clip_path)" data-figma-skip-parse="true"><g transform="matrix(-0.0059957 0.009 -0.00959297 -0.0137908 672.996 139)"><rect x="0" y="0" width="1138.35" height="567.947" fill="url(#paint15_diamond_9332_109018)" opacity="1" shape-rendering="crispEdges"/><rect x="0" y="0" width="1138.35" height="567.947" transform="scale(1 -1)" fill="url(#paint15_diamond_9332_109018)" opacity="1" shape-rendering="crispEdges"/><rect x="0" y="0" width="1138.35" height="567.947" transform="scale(-1 1)" fill="url(#paint15_diamond_9332_109018)" opacity="1" shape-rendering="crispEdges"/><rect x="0" y="0" width="1138.35" height="567.947" transform="scale(-1)" fill="url(#paint15_diamond_9332_109018)" opacity="1" shape-rendering="crispEdges"/></g></g><circle cx="671.5" cy="143.5" r="4" data-figma-gradient-fill="{&#34;type&#34;:&#34;GRADIENT_DIAMOND&#34;,&#34;stops&#34;:[{&#34;color&#34;:{&#34;r&#34;:0.30000001192092896,&#34;g&#34;:0.30000001192092896,&#34;b&#34;:0.30000001192092896,&#34;a&#34;:1.0},&#34;position&#34;:0.0},{&#34;color&#34;:{&#34;r&#34;:0.062745101749897003,&#34;g&#34;:0.062745101749897003,&#34;b&#34;:0.062745101749897003,&#34;a&#34;:1.0},&#34;position&#34;:1.0}],&#34;stopsVar&#34;:[{&#34;color&#34;:{&#34;r&#34;:0.30000001192092896,&#34;g&#34;:0.30000001192092896,&#34;b&#34;:0.30000001192092896,&#34;a&#34;:1.0},&#34;position&#34;:0.0},{&#34;color&#34;:{&#34;r&#34;:0.062745101749897003,&#34;g&#34;:0.062745101749897003,&#34;b&#34;:0.062745101749897003,&#34;a&#34;:1.0},&#34;position&#34;:1.0}],&#34;transform&#34;:{&#34;m00&#34;:-11.991404533386230,&#34;m01&#34;:-19.185937881469727,&#34;m02&#34;:688.58435058593750,&#34;m10&#34;:17.999996185302734,&#34;m11&#34;:-27.581621170043945,&#34;m12&#34;:143.79081726074219},&#34;opacity&#34;:1.0,&#34;blendMode&#34;:&#34;NORMAL&#34;,&#34;visible&#34;:true}" stroke="white"/>
<g clip-path="url(#paint16_diamond_9332_109018_clip_path)" data-figma-skip-parse="true"><g transform="matrix(0.0059957 0.009 0.00959297 -0.0137908 409.004 139)"><rect x="0" y="0" width="1138.35" height="567.947" fill="url(#paint16_diamond_9332_109018)" opacity="1" shape-rendering="crispEdges"/><rect x="0" y="0" width="1138.35" height="567.947" transform="scale(1 -1)" fill="url(#paint16_diamond_9332_109018)" opacity="1" shape-rendering="crispEdges"/><rect x="0" y="0" width="1138.35" height="567.947" transform="scale(-1 1)" fill="url(#paint16_diamond_9332_109018)" opacity="1" shape-rendering="crispEdges"/><rect x="0" y="0" width="1138.35" height="567.947" transform="scale(-1)" fill="url(#paint16_diamond_9332_109018)" opacity="1" shape-rendering="crispEdges"/></g></g><circle cx="4.5" cy="4.5" r="4" transform="matrix(-1 0 0 1 415 139)" data-figma-gradient-fill="{&#34;type&#34;:&#34;GRADIENT_DIAMOND&#34;,&#34;stops&#34;:[{&#34;color&#34;:{&#34;r&#34;:0.30000001192092896,&#34;g&#34;:0.30000001192092896,&#34;b&#34;:0.30000001192092896,&#34;a&#34;:1.0},&#34;position&#34;:0.0},{&#34;color&#34;:{&#34;r&#34;:0.062745101749897003,&#34;g&#34;:0.062745101749897003,&#34;b&#34;:0.062745101749897003,&#34;a&#34;:1.0},&#34;position&#34;:1.0}],&#34;stopsVar&#34;:[{&#34;color&#34;:{&#34;r&#34;:0.30000001192092896,&#34;g&#34;:0.30000001192092896,&#34;b&#34;:0.30000001192092896,&#34;a&#34;:1.0},&#34;position&#34;:0.0},{&#34;color&#34;:{&#34;r&#34;:0.062745101749897003,&#34;g&#34;:0.062745101749897003,&#34;b&#34;:0.062745101749897003,&#34;a&#34;:1.0},&#34;position&#34;:1.0}],&#34;transform&#34;:{&#34;m00&#34;:11.991404533386230,&#34;m01&#34;:19.185937881469727,&#34;m02&#34;:393.41561889648438,&#34;m10&#34;:17.999996185302734,&#34;m11&#34;:-27.581621170043945,&#34;m12&#34;:143.79081726074219},&#34;opacity&#34;:1.0,&#34;blendMode&#34;:&#34;NORMAL&#34;,&#34;visible&#34;:true}" stroke="white"/>
<circle cx="3.14905" cy="3.14905" r="2.64905" transform="matrix(-1 0 0 1 311.149 206.851)" fill="white" stroke="#BFC1D4"/>
<defs>
<filter id="filter0_ddiii_9332_109018" x="764" y="167.5" width="288" height="89" filterUnits="userSpaceOnUse" color-interpolation-filters="sRGB">
<feFlood flood-opacity="0" result="BackgroundImageFix"/>
<feColorMatrix in="SourceAlpha" type="matrix" values="0 0 0 0 0 0 0 0 0 0 0 0 0 0 0 0 0 0 127 0" result="hardAlpha"/>
<feOffset dy="2"/>
<feGaussianBlur stdDeviation="5"/>
<feComposite in2="hardAlpha" operator="out"/>
<feColorMatrix type="matrix" values="0 0 0 0 0.744945 0 0 0 0 0.82115 0 0 0 0 0.925065 0 0 0 0.2 0"/>
<feBlend mode="normal" in2="BackgroundImageFix" result="effect1_dropShadow_9332_109018"/>
<feColorMatrix in="SourceAlpha" type="matrix" values="0 0 0 0 0 0 0 0 0 0 0 0 0 0 0 0 0 0 127 0" result="hardAlpha"/>
<feOffset dy="2"/>
<feGaussianBlur stdDeviation="2"/>
<feComposite in2="hardAlpha" operator="out"/>
<feColorMatrix type="matrix" values="0 0 0 0 0.387198 0 0 0 0 0.595814 0 0 0 0 0.739079 0 0 0 0.06 0"/>
<feBlend mode="normal" in2="effect1_dropShadow_9332_109018" result="effect2_dropShadow_9332_109018"/>
<feBlend mode="normal" in="SourceGraphic" in2="effect2_dropShadow_9332_109018" result="shape"/>
<feColorMatrix in="SourceAlpha" type="matrix" values="0 0 0 0 0 0 0 0 0 0 0 0 0 0 0 0 0 0 127 0" result="hardAlpha"/>
<feOffset dy="1"/>
<feGaussianBlur stdDeviation="1"/>
<feComposite in2="hardAlpha" operator="arithmetic" k2="-1" k3="1"/>
<feColorMatrix type="matrix" values="0 0 0 0 1 0 0 0 0 1 0 0 0 0 1 0 0 0 1 0"/>
<feBlend mode="normal" in2="shape" result="effect3_innerShadow_9332_109018"/>
<feColorMatrix in="SourceAlpha" type="matrix" values="0 0 0 0 0 0 0 0 0 0 0 0 0 0 0 0 0 0 127 0" result="hardAlpha"/>
<feOffset/>
<feGaussianBlur stdDeviation="1"/>
<feComposite in2="hardAlpha" operator="arithmetic" k2="-1" k3="1"/>
<feColorMatrix type="matrix" values="0 0 0 0 0.768924 0 0 0 0 0.802984 0 0 0 0 0.858333 0 0 0 1 0"/>
<feBlend mode="normal" in2="effect3_innerShadow_9332_109018" result="effect4_innerShadow_9332_109018"/>
<feColorMatrix in="SourceAlpha" type="matrix" values="0 0 0 0 0 0 0 0 0 0 0 0 0 0 0 0 0 0 127 0" result="hardAlpha"/>
<feOffset dy="-3"/>
<feGaussianBlur stdDeviation="1"/>
<feComposite in2="hardAlpha" operator="arithmetic" k2="-1" k3="1"/>
<feColorMatrix type="matrix" values="0 0 0 0 0.86566 0 0 0 0 0.880943 0 0 0 0 0.891667 0 0 0 0.5 0"/>
<feBlend mode="normal" in2="effect4_innerShadow_9332_109018" result="effect5_innerShadow_9332_109018"/>
</filter>
<filter id="filter1_ddiii_9332_109018" x="30" y="167.5" width="288" height="89" filterUnits="userSpaceOnUse" color-interpolation-filters="sRGB">
<feFlood flood-opacity="0" result="BackgroundImageFix"/>
<feColorMatrix in="SourceAlpha" type="matrix" values="0 0 0 0 0 0 0 0 0 0 0 0 0 0 0 0 0 0 127 0" result="hardAlpha"/>
<feOffset dy="2"/>
<feGaussianBlur stdDeviation="5"/>
<feComposite in2="hardAlpha" operator="out"/>
<feColorMatrix type="matrix" values="0 0 0 0 0.744945 0 0 0 0 0.82115 0 0 0 0 0.925065 0 0 0 0.2 0"/>
<feBlend mode="normal" in2="BackgroundImageFix" result="effect1_dropShadow_9332_109018"/>
<feColorMatrix in="SourceAlpha" type="matrix" values="0 0 0 0 0 0 0 0 0 0 0 0 0 0 0 0 0 0 127 0" result="hardAlpha"/>
<feOffset dy="2"/>
<feGaussianBlur stdDeviation="2"/>
<feComposite in2="hardAlpha" operator="out"/>
<feColorMatrix type="matrix" values="0 0 0 0 0.387198 0 0 0 0 0.595814 0 0 0 0 0.739079 0 0 0 0.06 0"/>
<feBlend mode="normal" in2="effect1_dropShadow_9332_109018" result="effect2_dropShadow_9332_109018"/>
<feBlend mode="normal" in="SourceGraphic" in2="effect2_dropShadow_9332_109018" result="shape"/>
<feColorMatrix in="SourceAlpha" type="matrix" values="0 0 0 0 0 0 0 0 0 0 0 0 0 0 0 0 0 0 127 0" result="hardAlpha"/>
<feOffset dy="1"/>
<feGaussianBlur stdDeviation="1"/>
<feComposite in2="hardAlpha" operator="arithmetic" k2="-1" k3="1"/>
<feColorMatrix type="matrix" values="0 0 0 0 1 0 0 0 0 1 0 0 0 0 1 0 0 0 1 0"/>
<feBlend mode="normal" in2="shape" result="effect3_innerShadow_9332_109018"/>
<feColorMatrix in="SourceAlpha" type="matrix" values="0 0 0 0 0 0 0 0 0 0 0 0 0 0 0 0 0 0 127 0" result="hardAlpha"/>
<feOffset/>
<feGaussianBlur stdDeviation="1"/>
<feComposite in2="hardAlpha" operator="arithmetic" k2="-1" k3="1"/>
<feColorMatrix type="matrix" values="0 0 0 0 0.768924 0 0 0 0 0.802984 0 0 0 0 0.858333 0 0 0 1 0"/>
<feBlend mode="normal" in2="effect3_innerShadow_9332_109018" result="effect4_innerShadow_9332_109018"/>
<feColorMatrix in="SourceAlpha" type="matrix" values="0 0 0 0 0 0 0 0 0 0 0 0 0 0 0 0 0 0 127 0" result="hardAlpha"/>
<feOffset dy="-3"/>
<feGaussianBlur stdDeviation="1"/>
<feComposite in2="hardAlpha" operator="arithmetic" k2="-1" k3="1"/>
<feColorMatrix type="matrix" values="0 0 0 0 0.86566 0 0 0 0 0.880943 0 0 0 0 0.891667 0 0 0 0.5 0"/>
<feBlend mode="normal" in2="effect4_innerShadow_9332_109018" result="effect5_innerShadow_9332_109018"/>
</filter>
<filter id="filter2_ddiii_9332_109018" x="80" y="33.5" width="300" height="89" filterUnits="userSpaceOnUse" color-interpolation-filters="sRGB">
<feFlood flood-opacity="0" result="BackgroundImageFix"/>
<feColorMatrix in="SourceAlpha" type="matrix" values="0 0 0 0 0 0 0 0 0 0 0 0 0 0 0 0 0 0 127 0" result="hardAlpha"/>
<feOffset dy="2"/>
<feGaussianBlur stdDeviation="5"/>
<feComposite in2="hardAlpha" operator="out"/>
<feColorMatrix type="matrix" values="0 0 0 0 0.744945 0 0 0 0 0.82115 0 0 0 0 0.925065 0 0 0 0.2 0"/>
<feBlend mode="normal" in2="BackgroundImageFix" result="effect1_dropShadow_9332_109018"/>
<feColorMatrix in="SourceAlpha" type="matrix" values="0 0 0 0 0 0 0 0 0 0 0 0 0 0 0 0 0 0 127 0" result="hardAlpha"/>
<feOffset dy="2"/>
<feGaussianBlur stdDeviation="2"/>
<feComposite in2="hardAlpha" operator="out"/>
<feColorMatrix type="matrix" values="0 0 0 0 0.387198 0 0 0 0 0.595814 0 0 0 0 0.739079 0 0 0 0.06 0"/>
<feBlend mode="normal" in2="effect1_dropShadow_9332_109018" result="effect2_dropShadow_9332_109018"/>
<feBlend mode="normal" in="SourceGraphic" in2="effect2_dropShadow_9332_109018" result="shape"/>
<feColorMatrix in="SourceAlpha" type="matrix" values="0 0 0 0 0 0 0 0 0 0 0 0 0 0 0 0 0 0 127 0" result="hardAlpha"/>
<feOffset dy="1"/>
<feGaussianBlur stdDeviation="1"/>
<feComposite in2="hardAlpha" operator="arithmetic" k2="-1" k3="1"/>
<feColorMatrix type="matrix" values="0 0 0 0 1 0 0 0 0 1 0 0 0 0 1 0 0 0 1 0"/>
<feBlend mode="normal" in2="shape" result="effect3_innerShadow_9332_109018"/>
<feColorMatrix in="SourceAlpha" type="matrix" values="0 0 0 0 0 0 0 0 0 0 0 0 0 0 0 0 0 0 127 0" result="hardAlpha"/>
<feOffset/>
<feGaussianBlur stdDeviation="1"/>
<feComposite in2="hardAlpha" operator="arithmetic" k2="-1" k3="1"/>
<feColorMatrix type="matrix" values="0 0 0 0 0.768924 0 0 0 0 0.802984 0 0 0 0 0.858333 0 0 0 1 0"/>
<feBlend mode="normal" in2="effect3_innerShadow_9332_109018" result="effect4_innerShadow_9332_109018"/>
<feColorMatrix in="SourceAlpha" type="matrix" values="0 0 0 0 0 0 0 0 0 0 0 0 0 0 0 0 0 0 127 0" result="hardAlpha"/>
<feOffset dy="-3"/>
<feGaussianBlur stdDeviation="1"/>
<feComposite in2="hardAlpha" operator="arithmetic" k2="-1" k3="1"/>
<feColorMatrix type="matrix" values="0 0 0 0 0.86566 0 0 0 0 0.880943 0 0 0 0 0.891667 0 0 0 0.5 0"/>
<feBlend mode="normal" in2="effect4_innerShadow_9332_109018" result="effect5_innerShadow_9332_109018"/>
</filter>
<filter id="filter3_ddiii_9332_109018" x="704" y="33.5" width="288" height="89" filterUnits="userSpaceOnUse" color-interpolation-filters="sRGB">
<feFlood flood-opacity="0" result="BackgroundImageFix"/>
<feColorMatrix in="SourceAlpha" type="matrix" values="0 0 0 0 0 0 0 0 0 0 0 0 0 0 0 0 0 0 127 0" result="hardAlpha"/>
<feOffset dy="2"/>
<feGaussianBlur stdDeviation="5"/>
<feComposite in2="hardAlpha" operator="out"/>
<feColorMatrix type="matrix" values="0 0 0 0 0.744945 0 0 0 0 0.82115 0 0 0 0 0.925065 0 0 0 0.2 0"/>
<feBlend mode="normal" in2="BackgroundImageFix" result="effect1_dropShadow_9332_109018"/>
<feColorMatrix in="SourceAlpha" type="matrix" values="0 0 0 0 0 0 0 0 0 0 0 0 0 0 0 0 0 0 127 0" result="hardAlpha"/>
<feOffset dy="2"/>
<feGaussianBlur stdDeviation="2"/>
<feComposite in2="hardAlpha" operator="out"/>
<feColorMatrix type="matrix" values="0 0 0 0 0.387198 0 0 0 0 0.595814 0 0 0 0 0.739079 0 0 0 0.06 0"/>
<feBlend mode="normal" in2="effect1_dropShadow_9332_109018" result="effect2_dropShadow_9332_109018"/>
<feBlend mode="normal" in="SourceGraphic" in2="effect2_dropShadow_9332_109018" result="shape"/>
<feColorMatrix in="SourceAlpha" type="matrix" values="0 0 0 0 0 0 0 0 0 0 0 0 0 0 0 0 0 0 127 0" result="hardAlpha"/>
<feOffset dy="1"/>
<feGaussianBlur stdDeviation="1"/>
<feComposite in2="hardAlpha" operator="arithmetic" k2="-1" k3="1"/>
<feColorMatrix type="matrix" values="0 0 0 0 1 0 0 0 0 1 0 0 0 0 1 0 0 0 1 0"/>
<feBlend mode="normal" in2="shape" result="effect3_innerShadow_9332_109018"/>
<feColorMatrix in="SourceAlpha" type="matrix" values="0 0 0 0 0 0 0 0 0 0 0 0 0 0 0 0 0 0 127 0" result="hardAlpha"/>
<feOffset/>
<feGaussianBlur stdDeviation="1"/>
<feComposite in2="hardAlpha" operator="arithmetic" k2="-1" k3="1"/>
<feColorMatrix type="matrix" values="0 0 0 0 0.768924 0 0 0 0 0.802984 0 0 0 0 0.858333 0 0 0 1 0"/>
<feBlend mode="normal" in2="effect3_innerShadow_9332_109018" result="effect4_innerShadow_9332_109018"/>
<feColorMatrix in="SourceAlpha" type="matrix" values="0 0 0 0 0 0 0 0 0 0 0 0 0 0 0 0 0 0 127 0" result="hardAlpha"/>
<feOffset dy="-3"/>
<feGaussianBlur stdDeviation="1"/>
<feComposite in2="hardAlpha" operator="arithmetic" k2="-1" k3="1"/>
<feColorMatrix type="matrix" values="0 0 0 0 0.86566 0 0 0 0 0.880943 0 0 0 0 0.891667 0 0 0 0.5 0"/>
<feBlend mode="normal" in2="effect4_innerShadow_9332_109018" result="effect5_innerShadow_9332_109018"/>
</filter>
<filter id="filter4_dddddi_9332_109018" x="418.836" y="102.508" width="244.327" height="172.262" filterUnits="userSpaceOnUse" color-interpolation-filters="sRGB">
<feFlood flood-opacity="0" result="BackgroundImageFix"/>
<feColorMatrix in="SourceAlpha" type="matrix" values="0 0 0 0 0 0 0 0 0 0 0 0 0 0 0 0 0 0 127 0" result="hardAlpha"/>
<feOffset dy="3.4918"/>
<feGaussianBlur stdDeviation="3.4918"/>
<feColorMatrix type="matrix" values="0 0 0 0 0.109804 0 0 0 0 0.117647 0 0 0 0 0.192157 0 0 0 0.29 0"/>
<feBlend mode="normal" in2="BackgroundImageFix" result="effect1_dropShadow_9332_109018"/>
<feColorMatrix in="SourceAlpha" type="matrix" values="0 0 0 0 0 0 0 0 0 0 0 0 0 0 0 0 0 0 127 0" result="hardAlpha"/>
<feOffset dy="12.8033"/>
<feGaussianBlur stdDeviation="6.40164"/>
<feColorMatrix type="matrix" values="0 0 0 0 0.109804 0 0 0 0 0.117647 0 0 0 0 0.192157 0 0 0 0.25 0"/>
<feBlend mode="normal" in2="effect1_dropShadow_9332_109018" result="effect2_dropShadow_9332_109018"/>
<feColorMatrix in="SourceAlpha" type="matrix" values="0 0 0 0 0 0 0 0 0 0 0 0 0 0 0 0 0 0 127 0" result="hardAlpha"/>
<feOffset dy="27.9344"/>
<feGaussianBlur stdDeviation="8.14754"/>
<feColorMatrix type="matrix" values="0 0 0 0 0.109804 0 0 0 0 0.117647 0 0 0 0 0.192157 0 0 0 0.15 0"/>
<feBlend mode="normal" in2="effect2_dropShadow_9332_109018" result="effect3_dropShadow_9332_109018"/>
<feColorMatrix in="SourceAlpha" type="matrix" values="0 0 0 0 0 0 0 0 0 0 0 0 0 0 0 0 0 0 127 0" result="hardAlpha"/>
<feOffset dy="48.8852"/>
<feGaussianBlur stdDeviation="9.89344"/>
<feColorMatrix type="matrix" values="0 0 0 0 0.109804 0 0 0 0 0.117647 0 0 0 0 0.192157 0 0 0 0.04 0"/>
<feBlend mode="normal" in2="effect3_dropShadow_9332_109018" result="effect4_dropShadow_9332_109018"/>
<feColorMatrix in="SourceAlpha" type="matrix" values="0 0 0 0 0 0 0 0 0 0 0 0 0 0 0 0 0 0 127 0" result="hardAlpha"/>
<feOffset dy="76.8197"/>
<feGaussianBlur stdDeviation="10.4754"/>
<feColorMatrix type="matrix" values="0 0 0 0 0.109804 0 0 0 0 0.117647 0 0 0 0 0.192157 0 0 0 0.01 0"/>
<feBlend mode="normal" in2="effect4_dropShadow_9332_109018" result="effect5_dropShadow_9332_109018"/>
<feBlend mode="normal" in="SourceGraphic" in2="effect5_dropShadow_9332_109018" result="shape"/>
<feColorMatrix in="SourceAlpha" type="matrix" values="0 0 0 0 0 0 0 0 0 0 0 0 0 0 0 0 0 0 127 0" result="hardAlpha"/>
<feOffset dy="-1.51064"/>
<feComposite in2="hardAlpha" operator="arithmetic" k2="-1" k3="1"/>
<feColorMatrix type="matrix" values="0 0 0 0 1 0 0 0 0 1 0 0 0 0 1 0 0 0 1 0"/>
<feBlend mode="normal" in2="shape" result="effect6_innerShadow_9332_109018"/>
</filter>
<filter id="filter5_d_9332_109018" x="400.511" y="72.7654" width="280.979" height="149.553" filterUnits="userSpaceOnUse" color-interpolation-filters="sRGB">
<feFlood flood-opacity="0" result="BackgroundImageFix"/>
<feColorMatrix in="SourceAlpha" type="matrix" values="0 0 0 0 0 0 0 0 0 0 0 0 0 0 0 0 0 0 127 0" result="hardAlpha"/>
<feOffset dy="6.04255"/>
<feGaussianBlur stdDeviation="22.6596"/>
<feComposite in2="hardAlpha" operator="out"/>
<feColorMatrix type="matrix" values="0 0 0 0 0.301961 0 0 0 0 0.329412 0 0 0 0 0.392157 0 0 0 0.05 0"/>
<feBlend mode="normal" in2="BackgroundImageFix" result="effect1_dropShadow_9332_109018"/>
<feBlend mode="normal" in="SourceGraphic" in2="effect1_dropShadow_9332_109018" result="shape"/>
</filter>
<clipPath id="paint14_diamond_9332_109018_clip_path"><rect x="445.83" y="112.042" width="190.34" height="58.9149" rx="29.4574" shape-rendering="crispEdges"/></clipPath><clipPath id="paint15_diamond_9332_109018_clip_path"><circle cx="671.5" cy="143.5" r="4"/></clipPath><clipPath id="paint16_diamond_9332_109018_clip_path"><circle cx="4.5" cy="4.5" r="4" transform="matrix(-1 0 0 1 415 139)"/></clipPath><linearGradient id="paint0_linear_9332_109018" x1="687.059" y1="119.36" x2="774.495" y2="77.886" gradientUnits="userSpaceOnUse">
<stop stop-color="#BFC1D4"/>
<stop offset="0.220621" stop-color="#63646E"/>
<stop offset="0.996216" stop-color="#BFC1D4"/>
</linearGradient>
<linearGradient id="paint1_linear_9332_109018" x1="394.941" y1="119.36" x2="307.505" y2="77.886" gradientUnits="userSpaceOnUse">
<stop stop-color="#63646E"/>
<stop offset="0.112693" stop-color="#BFC1D4"/>
<stop offset="0.996216" stop-color="#BFC1D4"/>
</linearGradient>
<radialGradient id="paint2_radial_9332_109018" cx="0" cy="0" r="1" gradientTransform="matrix(192.507 -49.2857 191.441 28.8389 760.16 248.689)" gradientUnits="userSpaceOnUse">
<stop stop-color="white"/>
<stop offset="1" stop-color="#F9FBFF"/>
</radialGradient>
<radialGradient id="paint3_radial_9332_109018" cx="0" cy="0" r="1" gradientTransform="matrix(192.507 -49.2857 191.441 28.8389 760.16 248.689)" gradientUnits="userSpaceOnUse">
<stop stop-color="white"/>
<stop offset="1" stop-color="#FEFFFF"/>
</radialGradient>
<radialGradient id="paint4_radial_9332_109018" cx="0" cy="0" r="1" gradientTransform="matrix(192.507 -49.2857 191.441 28.8389 26.1596 248.689)" gradientUnits="userSpaceOnUse">
<stop stop-color="white"/>
<stop offset="1" stop-color="#F9FBFF"/>
</radialGradient>
<radialGradient id="paint5_radial_9332_109018" cx="0" cy="0" r="1" gradientTransform="matrix(192.507 -49.2857 191.441 28.8389 26.1596 248.689)" gradientUnits="userSpaceOnUse">
<stop stop-color="white"/>
<stop offset="1" stop-color="#FEFFFF"/>
</radialGradient>
<radialGradient id="paint6_radial_9332_109018" cx="0" cy="0" r="1" gradientTransform="matrix(201.127 -49.2857 200.013 28.8389 75.5399 114.689)" gradientUnits="userSpaceOnUse">
<stop stop-color="white"/>
<stop offset="1" stop-color="#FEFFFF"/>
</radialGradient>
<radialGradient id="paint7_radial_9332_109018" cx="0" cy="0" r="1" gradientTransform="matrix(192.507 -49.2857 191.441 28.8389 700.16 114.689)" gradientUnits="userSpaceOnUse">
<stop stop-color="white"/>
<stop offset="1" stop-color="#F9FBFF"/>
</radialGradient>
<radialGradient id="paint8_radial_9332_109018" cx="0" cy="0" r="1" gradientTransform="matrix(192.507 -49.2857 191.441 28.8389 700.16 114.689)" gradientUnits="userSpaceOnUse">
<stop stop-color="white"/>
<stop offset="1" stop-color="#FEFFFF"/>
</radialGradient>
<linearGradient id="paint9_linear_9332_109018" x1="540.5" y1="168" x2="540.5" y2="318" gradientUnits="userSpaceOnUse">
<stop stop-color="#BFC1D4"/>
<stop offset="1" stop-color="#BFC1D4" stop-opacity="0"/>
</linearGradient>
<linearGradient id="paint10_linear_9332_109018" x1="541" y1="248.364" x2="542.867" y2="248.413" gradientUnits="userSpaceOnUse">
<stop stop-color="#63646E"/>
<stop offset="0.112693" stop-color="#BFC1D4"/>
<stop offset="0.996216" stop-color="#BFC1D4" stop-opacity="0"/>
</linearGradient>
<linearGradient id="paint11_linear_9332_109018" x1="687.212" y1="166.64" x2="775.189" y2="208.782" gradientUnits="userSpaceOnUse">
<stop stop-color="#63646E"/>
<stop offset="0.112693" stop-color="#BFC1D4"/>
<stop offset="0.526314" stop-color="#63646E"/>
<stop offset="0.996216" stop-color="#BFC1D4"/>
</linearGradient>
<linearGradient id="paint12_linear_9332_109018" x1="377.24" y1="170.994" x2="306.811" y2="208.782" gradientUnits="userSpaceOnUse">
<stop offset="0.00378448" stop-color="#BFC1D4"/>
<stop offset="0.466768" stop-color="#63646E"/>
<stop offset="0.887307" stop-color="#BFC1D4"/>
</linearGradient>
<linearGradient id="paint13_linear_9332_109018" x1="541" y1="107.821" x2="541" y2="177" gradientUnits="userSpaceOnUse">
<stop stop-color="#FEFEFE"/>
<stop offset="1" stop-color="#D5D4D9"/>
</linearGradient>
<linearGradient id="paint14_diamond_9332_109018" x1="0" y1="0" x2="500" y2="500" gradientUnits="userSpaceOnUse">
<stop stop-color="#4D4D4D"/>
<stop offset="1" stop-color="#101010"/>
</linearGradient>
<linearGradient id="paint15_diamond_9332_109018" x1="0" y1="0" x2="500" y2="500" gradientUnits="userSpaceOnUse">
<stop stop-color="#4D4D4D"/>
<stop offset="1" stop-color="#101010"/>
</linearGradient>
<linearGradient id="paint16_diamond_9332_109018" x1="0" y1="0" x2="500" y2="500" gradientUnits="userSpaceOnUse">
<stop stop-color="#4D4D4D"/>
<stop offset="1" stop-color="#101010"/>
</linearGradient>
</defs>
</svg>
